<?xml version="1.0" encoding="UTF-8" standalone="no"?>
<svg
   xmlns:dc="http://purl.org/dc/elements/1.1/"
   xmlns:cc="http://creativecommons.org/ns#"
   xmlns:rdf="http://www.w3.org/1999/02/22-rdf-syntax-ns#"
   xmlns:svg="http://www.w3.org/2000/svg"
   xmlns="http://www.w3.org/2000/svg"
   xmlns:sodipodi="http://sodipodi.sourceforge.net/DTD/sodipodi-0.dtd"
   xmlns:inkscape="http://www.inkscape.org/namespaces/inkscape"
   width="512"
   height="512"
   viewBox="0 0 512.00001 512.00001"
   id="svg2"
   version="1.1"
   inkscape:version="0.91 r13725"
   sodipodi:docname="festival_2008_kort_bod_19_276593_163193.svg">
  <sodipodi:namedview
     pagecolor="#ffffff"
     bordercolor="#666666"
     borderopacity="1"
     objecttolerance="10"
     gridtolerance="10"
     guidetolerance="10"
     inkscape:pageopacity="0"
     inkscape:pageshadow="2"
     inkscape:window-width="1600"
     inkscape:window-height="837"
     id="namedview14"
     showgrid="false"
     units="px"
     inkscape:zoom="0.22425739"
     inkscape:cx="372.04724"
     inkscape:cy="526.1811"
     inkscape:window-x="-8"
     inkscape:window-y="-8"
     inkscape:window-maximized="1"
     inkscape:current-layer="svg2" />
  <defs
     id="defs4">
    <clipPath
       clipPathUnits="userSpaceOnUse"
       id="clipPath3375">
      <rect
         style="fill:#0000ff;fill-rule:evenodd;stroke:#000000;stroke-width:1.19885266px;stroke-linecap:butt;stroke-linejoin:miter;stroke-opacity:1"
         id="rect3377"
         width="1227.6218"
         height="1227.6285"
         x="-1053.9171"
         y="-730.12421" />
    </clipPath>
    <clipPath
       id="clipPath3358"
       clipPathUnits="userSpaceOnUse">
      <rect
         y="-1507.6346"
         x="513.00214"
         height="510.99478"
         width="510.99478"
         id="rect3360"
         style="fill:#0000ff;fill-rule:evenodd;stroke:#000000;stroke-width:1.00521362px;stroke-linecap:butt;stroke-linejoin:miter;stroke-opacity:1" />
    </clipPath>
  </defs>
  <metadata
     id="metadata7">
    <rdf:RDF>
      <cc:Work
         rdf:about="">
        <dc:format>image/svg+xml</dc:format>
        <dc:type
           rdf:resource="http://purl.org/dc/dcmitype/StillImage" />
        <dc:title></dc:title>
      </cc:Work>
    </rdf:RDF>
  </metadata>
  <g
     clip-path="url(#clipPath3358)"
     transform="matrix(1.0029415,0,0,1.0019672,-514.51113,1510.6005)"
     id="layer1">
    <g
       id="g3347"
       transform="matrix(0.83331935,0,0,0.83331479,878.74901,-1410.715)"
       clip-path="url(#clipPath3375)">
      <path
         style="fill:#f3f1eb"
         d="m -1054.5144,498.07648 0,-1228.80005 1228.80005,0 1228.80005,0 0,1228.80005 0,1228.80002 -1228.80005,0 -1228.80005,0 0,-1228.80002 z"
         id="path3363"
         inkscape:connector-curvature="0" />
      <path
         style="fill:#eeebe3"
         d="m -1054.5144,501.97648 0,-1224.90005 1228.80005,0 1228.80005,0 0,1224.90005 0,1224.90002 -801.68571,0 c -656.300105,0 -801.96876,-0.2829 -803.24618,-1.5603 -1.14498,-1.1451 -1.30095,-3.1418 -0.58583,-7.5 1.87539,-11.4297 2.65879,-10.544 -12.38235,-13.9997 -27.28033,-6.2679 -36.35528,-8.1781 -38.76,-8.1593 -1.353,0.012 -2.973,-0.4792 -3.6,-1.0885 -0.627,-0.6093 -4.65,-1.7404 -8.94,-2.5135 -4.29,-0.7732 -10.57363,-2.1069 -13.96362,-2.9638 l -6.16361,-1.558 -3.04442,11.5716 c -1.67443,6.3644 -3.40211,14.3747 -3.83928,17.801 -0.60137,4.7128 -1.48984,6.6847 -3.64974,8.1 -2.57028,1.684 -40.48332,1.8705 -380.29713,1.8705 l -377.44223,0 0,-1224.90002 z m 889.46286,1190.10002 c 1.23192,-6.27 4.07809,-20.85 6.3248,-32.4 2.24673,-11.55 5.71028,-29.1 7.69679,-39 1.98651,-9.9 5.54572,-28.26 7.90936,-40.8 2.36363,-12.54 4.79682,-24.96 5.40707,-27.6 0.61026,-2.64 1.43372,-7.0153 1.82991,-9.7229 l 0.72036,-4.9228 -5.17556,-1.3106 c -6.63331,-1.6796 -18.26913,-4.226 -36.37555,-7.9604 -7.92,-1.6336 -20.34001,-4.342 -27.60001,-6.0187 -44.11069,-10.1879 -73.75131,-16.4363 -74.82395,-15.7734 -0.57871,0.3577 -1.36033,2.6885 -1.73695,5.1795 -0.37661,2.4911 -1.57421,8.5793 -2.66132,13.5293 -1.08712,4.95 -3.21364,15.75 -4.72561,24 -1.51197,8.25 -4.68391,24.72 -7.04876,36.6 -2.36485,11.88 -6.2519,31.86 -8.63789,44.4 -2.38597,12.54 -5.1093,26.6922 -6.05184,31.4494 -0.94252,4.7573 -1.71368,9.1421 -1.71368,9.7441 0,1.3987 4.94179,2.6736 33.45817,8.6317 12.792,2.6728 28.992,6.1635 36.00001,7.7573 7.00801,1.5937 21.38182,4.8244 31.94182,7.1792 10.56,2.355 23.52001,5.3061 28.80001,6.558 14.41983,3.4193 13.85659,3.745 16.46282,-9.5197 z m 1301.73724,-96 0,-66 -23.4,0 -23.4,0 0,66 0,66 23.4,0 23.4,0 0,-66 z m -20.2992,-223.6857 c 11.15,-2.79 25.8494,-10.4243 33.851,-17.581 39.3941,-35.2339 30.8464,-97.8178 -16.5518,-121.1877 -23.5312,-11.6022 -44.7671,-11.6109 -68.4,-0.029 -27.6031,13.5284 -44.7913,44.3167 -41.2345,73.8609 5.3373,44.3353 49.7742,75.5861 92.3353,64.9361 z m -195.70082,-75.1143 0,-62.4 -138.60001,0 -138.6,0 0,62.4 0,62.4 138.6,0 138.60001,0 0,-62.4 z m 93.68642,48.1829 c 0.9505,-1.0843 -1.7458,-121.0422 -2.7431,-122.0397 -0.4433,-0.4432 -19.53876,-0.4052 -42.43428,0.085 l -41.62824,0.8906 0.74976,19.9407 c 0.41232,10.9676 1.10436,38.7707 1.53768,61.7849 l 0.78792,41.8441 41.52192,-0.8611 c 22.83708,-0.4736 41.83084,-1.2135 42.20834,-1.6441 z M 742.58815,806.51561 c 12.72372,-6.26388 23.20428,-20.2704 26.90364,-35.95476 8.27304,-35.076 -20.0202,-70.78332 -52.1826,-65.85696 -18.78012,2.87652 -35.27364,19.47612 -40.22964,40.48824 -5.67696,24.06936 6.23376,51.14772 26.99328,61.36752 13.34436,6.5694 25.1088,6.55596 38.51532,-0.0444 z M 530.08566,785.98949 c 13.50637,-3.22008 28.00993,-10.66056 36.01525,-18.4764 28.45872,-27.78444 10.96392,-65.44008 -36.01525,-77.51892 -35.49552,-9.12624 -78.09312,6.23928 -90.6024,32.68164 -11.74572,24.82836 6.07032,51.44808 41.61672,62.18136 16.56804,5.00268 31.32168,5.34372 48.98568,1.13232 z m -313.80001,-205.71301 0,-55.8 -40.2,0 -40.2,0 0,55.8 0,55.80001 40.2,0 40.2,0 0,-55.80001 z m 183.60001,-1.8 0,-57.6 -40.2,0 -40.2,0 0,57.6 0,57.60001 40.2,0 40.2,0 0,-57.60001 z m -96,1.8 0,-52.2 -40.20001,0 -40.2,0 0,52.2 0,52.20001 40.2,0 40.20001,0 0,-52.20001 z m 325.20001,-19.8 0,-49.2 -32.60556,0 c -28.65576,0 -32.87124,-0.2406 -34.8,-1.986 -1.20696,-1.09224 -2.19444,-2.87064 -2.19444,-3.95184 0,-1.0842 7.65036,-8.13204 17.05752,-15.714 9.3816,-7.56144 22.16136,-17.95344 28.39932,-23.09327 6.23796,-5.13982 12.66552,-10.30934 14.28336,-11.48784 l 2.94144,-2.14273 -25.527,-31.71216 c -14.03988,-17.44169 -25.677,-31.90088 -25.86024,-32.13153 -0.24996,-0.31465 -84.97609,67.80558 -90.99205,73.15804 -0.62508,0.55616 5.09508,8.61449 13.2876,18.71897 19.6122,24.18936 19.04112,23.2164 15.94044,27.1584 l -2.50464,3.18396 -23.91288,0 -23.91288,0 0,49.2 0,49.2 85.20001,0 85.2,0 0,-49.2 z m -523.16283,-4.25496 c 1.15921,-4.58976 4.3646,-17.79504 7.12309,-29.34504 2.75849,-11.55 7.11529,-29.64 9.68179,-40.2 2.56649,-10.56 11.43122,-47.28 19.6994,-81.6 21.51657,-89.31226 29.80029,-123.61172 37.09605,-153.60001 3.53256,-14.52 6.0942,-26.72802 5.69256,-27.12894 -0.72996,-0.72885 -303.78134,-76.67106 -305.95978,-76.67106 -1.12408,0 -8.49705,29.49508 -33.74636,135 -3.43137,14.33807 -9.10819,37.79265 -25.84932,106.80001 -18.01721,74.26737 -23.532,98.04264 -22.89033,98.68428 0.74754,0.7476 304.78706,76.90044 305.98047,76.63908 0.58562,-0.12828 2.01321,-3.98844 3.17243,-8.57832 z m -810.03723,-65.94504 0,-22.2 -60.6,0 -60.6,0 0,22.2 0,22.2 60.6,0 60.6,0 0,-22.2 z m 1412.7519,-25.07969 c 39.00888,-26.48764 41.06172,-27.93617 40.8582,-28.83067 -0.53184,-2.33886 -64.4838,-97.92899 -65.3196,-97.63445 -3.9732,1.40012 -66.92388,45.04395 -66.5406,46.13263 0.83916,2.38302 64.10508,97.61218 64.84908,97.61218 0.3876,0 12.15648,-7.77588 26.15292,-17.27969 z m -936.35188,-160.92032 0,-172.2 -170.4,0 -170.40001,0 0,172.2 0,172.20001 170.40001,0 170.4,0 0,-172.20001 z m -484.80002,112.20001 0,-24 -54,0 -54,0 0,24 0,24 54,0 54,0 0,-24 z m 1711.20007,3.36644 c 72.12792,-12.08776 117.89112,-88.0522 94.72412,-157.23681 -16.6164,-49.62219 -62.8976,-83.8774 -113.32412,-83.8774 -64.56684,0 -119.51916,55.79302 -119.51916,121.34776 0,58.44522 44.06184,110.46902 101.51916,119.86365 15.00192,2.45291 21.48612,2.43569 36.6,-0.0972 z m -1702.80007,-132.96645 0,-26.4 -60.6,0 -60.6,0 0,26.4 0,26.4 60.6,0 60.6,0 0,-26.4 z m 3.6,-70.2 0,-24.6 -58.2,0 -58.2,0 0,24.6 0,24.6 58.2,0 58.2,0 0,-24.6 z m 967.20004,-188.400009 0,-33.0000015 -34.8,0 -34.8,0 0,33.0000015 0,33.000001 34.8,0 34.8,0 0,-33.000001 z M -760.47878,-359.32355 c 5.45074,-3.96001 22.78716,-16.77424 38.52536,-28.47608 15.73821,-11.70185 38.74535,-28.67933 51.12698,-37.72776 12.38163,-9.04842 26.56206,-19.4985 31.51206,-23.22241 8.04647,-6.0534 52.67573,-38.83251 71.4,-52.44155 3.96,-2.87819 9.63,-7.08706 12.6,-9.35306 2.97,-2.26599 12.96,-9.69457 22.2,-16.50795 46.92051,-34.59819 58.2718,-43.25284 57.95067,-44.18384 -0.48149,-1.3959 -58.7571,-80.28737 -59.30674,-80.28737 -0.24239,0 -3.54643,2.34618 -7.34232,5.21372 -3.79589,2.86755 -14.19161,10.59 -23.10161,17.161 -67.84845,50.03728 -97.82535,72.22363 -107.17974,79.32529 -3.69478,2.805 -7.55085,5.1 -8.56902,5.1 -1.01819,0 -1.85124,0.54251 -1.85124,1.20557 0,1.26866 -19.38646,15.91609 -56.70961,42.84691 -6.59526,4.75886 -15.83865,11.62808 -20.54089,15.26494 -4.70222,3.63685 -17.87244,13.36856 -29.26714,21.62604 -31.76655,23.02047 -43.63679,32.06264 -44.2754,33.72686 -0.32098,0.83645 10.68432,16.55283 24.45623,34.92526 13.7719,18.37243 27.10507,36.26317 29.62926,39.7572 4.06809,5.63113 4.83045,6.1764 6.71107,4.8 1.1669,-0.85403 6.58133,-4.79277 12.03208,-8.75277 z"
         id="path3361"
         inkscape:connector-curvature="0" />
      <path
         style="fill:#e7e3d8"
         d="m -955.53187,1724.7765 c 0.73588,-3.4748 15.60167,-32.7738 20.57777,-40.5567 2.55184,-3.9912 6.25971,-9.8468 8.23971,-13.0121 1.98,-3.1655 5.87931,-9.1973 8.66515,-13.404 2.78583,-4.2069 6.91011,-11.3113 9.16506,-15.7879 3.86899,-7.6809 11.97579,-16.5508 20.30088,-22.212 2.31381,-1.5735 4.10809,-5.3313 7.44853,-15.6 2.42026,-7.44 5.89145,-15.6873 7.71375,-18.3273 3.62232,-5.2477 13.79388,-25.8033 15.1418,-30.6 0.46367,-1.65 2.87275,-5.7 5.3535,-9 2.48076,-3.3 5.22718,-7.35 6.10314,-9 3.60751,-6.7952 4.95697,-55.6314 2.43719,-88.2 -3.45727,-44.6857 -3.1627,-43.5084 -12.9102,-51.6 -11.98827,-9.9517 -13.03869,-10.2 -43.16363,-10.2 -27.08154,0 -31.50112,-0.524 -44.70605,-5.3006 -3.54073,-1.2808 -9.4031,-1.9024 -18,-1.9085 -9.27513,-0.01 -14.87454,-0.6582 -20.54913,-2.3909 -6.87443,-2.099 -11.31262,-2.3827 -37.4019,-2.3909 -16.281,0 -30.456,-0.3368 -31.5,-0.7375 -1.6644,-0.6387 -1.8981,-4.6245 -1.8981,-32.3771 l 0,-31.6488 2.9261,-0.7344 c 2.9235,-0.7338 19.5152,-0.2166 62.4739,1.9472 12.54,0.6316 33.49258,1.4486 46.56128,1.8154 l 23.76128,0.6671 4.18048,-3.6704 c 2.51667,-2.2097 5.50705,-3.6706 7.51362,-3.6706 1.83323,0 8.12573,-1.62 13.98335,-3.6 5.85762,-1.98 11.64049,-3.6 12.85083,-3.6 3.72473,0 8.35085,-16.7387 5.89457,-21.3283 -0.73997,-1.3826 -1.3454,-5.2187 -1.3454,-8.5246 0,-3.384 -1.51324,-10.6288 -3.46282,-16.5788 -1.90455,-5.8126 -3.79776,-12.4068 -4.20713,-14.6539 -0.40937,-2.2471 -1.40975,-4.8875 -2.22307,-5.8674 -0.81332,-0.9801 -2.11727,-4.0016 -2.89765,-6.7144 -0.78039,-2.713 -3.01637,-9.5226 -4.96885,-15.1326 -5.59372,-16.0722 -6.24048,-20.3687 -6.24048,-41.4558 0,-15.8303 -0.39921,-20.7196 -1.98266,-24.2827 -2.74928,-6.1866 -3.98151,-15.4493 -5.30284,-39.8615 -0.62516,-11.55 -1.66442,-28.56 -2.30948,-37.8 -0.64504,-9.24 -1.70475,-25.71 -2.3549,-36.6 -0.65015,-10.89 -1.75603,-24.39 -2.45753,-30 -0.70148,-5.61 -1.80203,-19.92 -2.44563,-31.8 -0.64361,-11.88 -1.70268,-29.43 -2.35348,-39 -0.6508,-9.57 -1.68263,-27.93 -2.29297,-40.8 -0.61033,-12.87 -1.7674,-26.64001 -2.57125,-30.60001 -1.01168,-4.98384 -1.74543,-33.9792 -2.38379,-94.2 -0.58492,-55.17768 -1.46182,-91.60872 -2.3974,-99.6 -2.29839,-19.63188 -2.2601,-150.62641 0.052,-177.60001 1.18356,-13.80816 1.8,-36 1.8,-64.8 0,-46.66478 -0.28237,-50.29139 -6.56358,-84.30001 -1.18088,-6.39369 -2.40377,-14.19506 -4.93775,-31.5 -0.77319,-5.28 -1.89994,-17.43 -2.50393,-27 -3.84048,-60.8514 -5.73099,-74.88271 -12.4495,-92.4 -8.77913,-22.89002 -8.53754,-21.64332 -9.29605,-47.97039 -0.68598,-23.80922 0.29369,-44.017968 2.79373,-57.629617 0.66672,-3.63 1.77463,-12.81 2.46202,-20.400001 0.6874,-7.59 1.71817,-17.85 2.2906,-22.800001 0.57244,-4.95 1.6083,-17.64 2.30191,-28.200001 0.69361,-10.56000028 2.06976,-27.030001 3.05811,-36.600001 0.98834,-9.570001 1.80765,-20.748421 1.82069,-24.840937 0.0131,-4.092517 0.55008,-10.032517 1.19342,-13.200001 1.08621,-5.348004 3.8397,-63.153891 4.04688,-84.959071 0.0502,-5.28 -0.65629,-20.13 -1.56991,-33 -2.10751,-29.68823 -2.29176,-110.19225 -0.28837,-126 2.67158,-21.08014 3.91313,-32.91446 5.0987,-48.6 0.64851,-8.58001 1.81979,-20.73001 2.60285,-27.00001 1.69657,-13.58461 1.46302,-61.53482 -0.36238,-74.4 -1.81497,-12.7916 -3.27959,-36.25823 -4.68097,-75 -1.34268,-37.11903 -2.6652,-56.88994 -3.94388,-58.95888 -0.46185,-0.7473 -1.39427,-11.54727 -2.07204,-23.99993 -0.67776,-12.45266 -1.73605,-26.9612 -2.35174,-32.2412 -0.61569,-5.28 -1.14856,-23.98722 -1.18414,-41.57161 -0.0568,-28.08551 0.16601,-32.06015 1.83344,-32.7 2.80259,-1.07546 72.85204,-0.85036 74.56756,0.23961 1.15036,0.73089 1.09519,4.7934 -0.25638,18.88163 -1.34148,13.98307 -1.43647,20.58764 -0.42983,29.8829 0.98855,9.12812 0.94182,13.39332 -0.19884,18.1481 -2.27758,9.49405 0.13402,28.31088 4.47968,34.95321 1.9938,3.04752 2.13967,8.26397 2.13967,76.51832 l 0,73.24785 4.07798,6.42198 4.07799,6.42198 -1.51103,12.17802 c -0.83106,6.69791 -1.98815,14.06802 -2.57129,16.37802 -0.58315,2.31 -1.06328,7.74582 -1.06696,12.07961 -0.004,4.33379 -0.53172,10.81379 -1.17342,14.4 -0.64168,3.58621 -1.96779,15.86244 -2.94688,27.2805 -1.96058,22.864 -1.66235,24.83706 4.2851,28.35032 l 3.56699,2.10706 -0.78419,32.59126 c -0.4313,17.92519 -1.32082,34.71852 -1.97669,37.31851 -0.74178,2.94052 -0.86817,13.85169 -0.33441,28.8683 0.74847,21.05724 0.6089,24.62289 -1.09256,27.91315 -5.18304,10.02291 -0.31096,20.6913 9.44937,20.6913 7.07918,0 10.68607,-4.31732 13.07781,-15.65367 0.35435,-1.67953 2.89617,-6.53781 5.64849,-10.79618 5.20894,-8.05925 11.1689,-22.17806 10.09531,-23.91519 -0.34056,-0.55103 0.72499,-3.88931 2.36788,-7.41842 1.64288,-3.5291 2.99234,-8.45888 2.99879,-10.95509 0.006,-2.49619 0.82172,-6.47714 1.81172,-8.84654 0.99,-2.36941 1.8,-5.25593 1.8,-6.41449 0,-2.72764 17.65038,-16.86447 35.4,-28.35315 7.24974,-4.69249 9.00509,-5.3417 12.81875,-4.74096 6.05784,0.95425 9.62816,-0.66905 17.1798,-7.81107 3.55483,-3.36201 8.58839,-7.54881 11.18569,-9.304 11.00588,-7.43748 17.10986,-12.67417 25.14224,-21.56989 6.45694,-7.15096 9.92053,-9.96318 14.29738,-11.60862 18.86565,-7.09239 43.56951,-22.8279 62.17615,-39.6041 12.15021,-10.95493 25.30535,-21.00864 27.48949,-21.00864 0.79843,0 4.65992,-1.9512 8.5811,-4.33599 7.81155,-4.75086 20.2504,-10.28336 30.52941,-13.57871 3.63,-1.16375 10.38,-4.01059 15,-6.32633 4.62,-2.31574 13.8,-6.27264 20.4,-8.79312 6.6,-2.52048 13.08,-5.22923 14.4,-6.01944 1.32,-0.7902 6.63365,-2.94648 11.80812,-4.79175 11.01511,-3.92806 27.96116,-12.786 43.99188,-22.99515 16.0426,-10.21673 31.31867,-16.42371 48.00001,-19.50339 19.99758,-3.69192 47.01314,-10.55175 54.37217,-13.80626 3.50013,-1.54793 8.0737,-4.25315 10.1635,-6.01159 3.81891,-3.2134 15.1636,-7.85157 19.13435,-7.82289 1.17149,0.008 5.90998,-0.79675 10.52998,-1.78935 12.38478,-2.66085 37.51474,-6.30423 54.6,-7.91598 10.80576,-1.01938 16.0863,-2.06825 18.88497,-3.75113 2.13673,-1.28484 8.34673,-3.05869 13.8,-3.94189 5.45327,-0.8832 15.31503,-3.04321 21.91503,-4.79999 15.71319,-4.18257 30.90075,-4.84 61.20001,-2.64921 15.75733,1.13934 25.03033,1.34307 27,0.5932 3.78399,-1.4406 75.393517,-0.96443 78.376321,0.52117 1.328424,0.66163 4.454304,0.59539 8.0232,-0.16999 4.616568,-0.99009 6.729516,-0.88513 10.041613,0.49874 2.30712,0.96397 4.511496,2.26518 4.898628,2.89158 0.872568,1.41185 33.1496651,0.47026 43.384058,-1.2656 6.3609,-1.07889 8.411952,-0.90355 15.6,1.33352 9.638461,2.99969 16.173301,2.53878 22.288273,-1.57203 5.542536,-3.72599 5.819328,-7.31124 0.7623,-9.87386 -5.687424,-2.88205 -8.102328,-5.27179 -10.8375,-10.72456 -1.324248,-2.64 -3.467784,-5.95845 -4.763413,-7.37433 -2.043444,-2.23309 -2.18544,-3.18745 -1.071276,-7.2 0.706428,-2.54412 1.287432,-10.08519 1.291104,-16.75794 l 0.0067,-12.13227 -6.318636,-12.46773 -6.318648,-12.46774 0.618648,-12.53836 0.618636,-12.53837 4.2,-2.44983 c 3.7788,-2.20414 6.245856,-2.45101 24.600001,-2.46163 18.608677,-0.0108 20.821489,0.21502 25.200001,2.57141 2.64,1.42077 6.15,4.03708 7.800001,5.81402 3.727404,4.01417 8.580396,6.60276 12.378569,6.60276 1.59377,0 4.22771,1.04613 5.85318,2.32474 2.39056,1.8804 2.98155,3.47152 3.0921,8.32473 0.15416,6.76765 2.15644,11.36025 6.86691,15.75053 1.77035,1.65 3.98827,4.8368 4.92873,7.08177 0.94047,2.24497 3.83267,6.38466 6.42712,9.1993 2.59445,2.81465 6.31369,8.26785 8.265,12.11824 1.95131,3.85038 5.0045,8.3507 6.78488,10.0007 1.7804,1.65 4.30287,5.07868 5.60559,7.61929 1.3026,2.54061 4.40424,6.86061 6.89256,9.6 2.4882,2.73939 8.74236,11.19071 13.89804,18.78071 5.15568,7.59 12.76788,17.31 16.91592,21.6 5.0832,5.25698 8.3796,9.95178 10.11108,14.4 5.21748,13.40407 10.33356,18.16243 33.70596,31.34915 0.73032,0.41204 1.79856,3.26876 2.37384,6.34829 1.09608,5.86681 5.75472,12.73728 13.0332,19.22108 3.88668,3.46226 7.2162,6.81343 19.75308,19.88148 2.84928,2.97 5.79516,7.29676 6.54636,9.61503 0.762,2.35137 2.56008,4.73894 4.06692,5.4 1.48548,0.65173 3.70764,3.24606 4.93812,5.76517 1.23036,2.5191 4.8084,6.98528 7.95096,9.92484 4.11348,3.84763 6.15768,6.9299 7.29852,11.00436 1.12141,4.0055 3.10993,7.0479 6.80341,10.4092 2.87028,2.61222 6.86592,7.84009 8.87928,11.61748 2.47164,4.63722 4.80492,7.34199 7.18368,8.32728 1.93764,0.80261 5.37984,2.93488 7.64916,4.7384 2.8644,2.27631 5.05392,3.10177 7.1598,2.69922 4.767,-0.91126 8.38476,2.38922 11.25864,10.27111 1.64244,4.50451 3.76944,7.93166 5.71332,9.2053 1.81056,1.18635 4.77828,5.71903 7.14564,10.91385 2.22696,4.88665 6.23532,11.25671 8.90748,14.15569 3.07848,3.33981 5.55456,7.61465 6.75828,11.66814 1.55064,5.22142 3.4212,7.85368 10.1772,14.32127 4.55268,4.35821 8.27748,8.79618 8.27748,9.86213 0,1.06596 1.63488,3.10228 3.63312,4.52514 1.99824,1.42288 4.94064,5.16726 6.5388,8.32087 1.59804,3.1536 5.64252,8.10122 8.98776,10.99468 5.11956,4.42823 6.6408,6.78022 9.61116,14.86085 3.25044,8.84233 4.36164,10.39842 14.07912,19.71626 5.80248,5.56396 11.90004,11.85275 13.55004,13.97511 3.76788,4.84647 15.08352,13.98272 21.17448,17.09617 2.544,1.30041 8.94552,5.68199 14.22552,9.73687 5.28,4.05488 10.95,7.65558 12.6,8.00158 1.65,0.346 5.7,1.61602 9,2.82228 22.0704,8.06747 26.34288,8.21471 41.41945,1.42742 2.98068,-1.34187 8.11068,-3.04138 11.4,-3.77671 3.32484,-0.74328 7.39248,-2.68695 9.1602,-4.37714 1.74876,-1.67212 5.79876,-4.36043 9,-5.97402 10.69128,-5.38907 17.26104,-9.60082 21.75996,-13.94997 2.45316,-2.37156 8.03664,-6.37875 12.40776,-8.90489 11.37072,-6.57142 24.13332,-19.04012 28.65264,-27.99286 5.48292,-10.86177 11.03268,-18.20476 25.7562,-34.07891 8.66448,-9.34158 16.14828,-16.13992 21.6438,-19.66125 4.62,-2.96034 10.29396,-7.08008 12.60876,-9.15498 2.31492,-2.07491 5.88984,-4.46885 7.94436,-5.31986 2.05452,-0.85103 4.2738,-2.72582 4.93152,-4.16621 0.65784,-1.44039 3.20052,-5.01607 5.65056,-7.94595 2.44992,-2.92988 5.73696,-7.78988 7.30428,-10.8 1.56744,-3.01012 5.30352,-8.05245 8.30244,-11.20518 5.40708,-5.68437 5.48208,-5.717 8.98128,-3.90746 1.94088,1.00362 5.31708,4.07934 7.50276,6.83492 3.91116,4.93084 5.19108,6.19487 16.458,16.25348 3.15432,2.81602 7.72884,8.83152 10.34424,13.60274 5.09256,9.29017 9.83004,14.12625 17.70517,18.07321 5.82576,2.91986 11.66664,8.03556 11.66664,10.21815 0,0.82158 -1.755,2.72774 -3.9,4.23594 -3.02232,2.12502 -16.52257,14.31601 -28.77697,25.98608 -0.4824,0.45935 -11.0124,11.13303 -23.4,23.71929 -12.41628,12.61526 -25.01136,24.30918 -28.06824,26.05986 -3.0498,1.74666 -8.178,5.92298 -11.39592,9.28073 -3.21804,3.35773 -8.32452,7.69235 -11.34804,9.63248 -3.0234,1.94013 -6.18804,4.81866 -7.0326,6.39673 -0.84456,1.57808 -8.01072,9.00652 -15.9246,16.50766 -9.82824,9.31557 -16.68348,17.06163 -21.62808,24.43843 -3.98148,5.94 -8.73192,12.42 -10.55652,14.4 -10.08756,10.94685 -16.8798,27.328086 -19.77756,47.698999 -5.68632,39.974101 -5.01936,112.780012 1.25052,136.501013 1.6572,6.27 3.5358,13.755529 4.17444,16.634497 0.63876,2.878968 2.72208,8.008968 4.62972,11.4 1.90764,3.391032 4.15032,8.325505 4.98384,10.965505 0.8334,2.64 3.5976,9.265376 6.14268,14.723066 2.54508,5.45768 4.62732,10.46804 4.62732,11.13414 0,0.66609 1.89,5.19387 4.2,10.06174 2.31,4.86786 4.20336,9.5775 4.20744,10.46586 0,0.88836 0.86868,3.2352 1.92144,5.2152 2.78388,5.23584 11.27112,24.83769 11.27112,26.03138 0,1.12747 8.28024,19.25026 12.23052,26.76862 5.75988,10.96241 19.44432,32.32108 24.26232,37.86838 5.52564,6.36207 18.87828,24.6397 22.344,30.58525 1.67028,2.86539 7.10352,8.67967 12.0738,12.92059 9.80616,8.36699 15.89172,16.74916 19.19712,26.44156 1.16004,3.40133 4.08408,10.77422 6.498,16.38422 2.41392,5.61 4.8312,11.55 5.3718,13.2 5.08536,15.52126 26.92693,57.94065 37.48345,72.79803 9.08388,12.78493 15.339,22.57055 15.339,23.99679 0,2.63773 4.01112,10.44612 7.47276,14.54695 1.83,2.16795 3.32724,4.63857 3.32724,5.49024 0,2.14097 9.3096,13.93272 14.8188,18.76992 2.49948,2.19456 6.15276,7.00692 8.11824,10.69416 1.96548,3.68712 4.30788,8.05392 5.20536,9.70392 0.89736,1.65 2.87268,5.97 4.3896,9.6 1.51692,3.63 4.47,9.03 6.56232,12 2.09232,2.97 4.96332,7.69548 6.37992,10.50108 1.4166,2.80572 5.23644,9.177 8.48844,14.15868 3.252,4.98156 6.28476,10.24608 6.73944,11.6988 0.45468,1.45284 2.40924,4.9518 4.3434,7.77552 1.93416,2.82384 4.87272,8.22384 6.53016,12 1.65744,3.77628 4.64784,9.43188 6.64536,12.5682 1.99764,3.1362 4.6338,8.92104 5.85828,12.85524 1.22448,3.9342 3.3276,9.31176 4.67352,11.94996 1.34592,2.63832 2.44716,5.50308 2.44716,6.36612 0,0.86316 1.30644,3.49188 2.90316,5.84161 1.59672,2.34984 4.87572,9.53892 7.28664,15.97596 4.33464,11.57304 14.07816,31.40712 21.4206,43.6038 9.56928,15.89568 22.77732,37.25604 25.16172,40.69188 2.65104,3.82032 7.80588,12.53388 12.22788,20.66964 1.32,2.42856 4.07788,6.82944 6.12868,9.77952 2.0508,2.9502 6.4163,10.53288 9.7011,16.85052 3.2847,6.31752 7.7139,13.87752 9.8429,16.8 5.4327,7.45812 13.2741,20.976 14.7934,25.503 1.1489,3.423 3.5991,7.92624 11.5404,21.21048 1.3809,2.31 4.7601,8.52 7.5093,13.8 2.7491,5.28 6.4783,11.76 8.2871,14.4 3.7628,5.49228 18.4428,34.49281 19.7415,39.00001 0.4755,1.65 2.647,7.05 4.8256,12 2.1787,4.95 5.4482,13.05 7.2657,18 3.5793,9.74868 10.4646,23.15496 13.867,27 1.168,1.32 3.2777,5.49468 4.6882,9.2772 1.4104,3.7824 3.1194,7.22016 3.7975,7.6392 1.3035,0.80568 12.7824,24.52752 16.7832,34.6836 1.2999,3.3 3.6056,8.43 5.1235,11.4 1.518,2.97 3.7235,8.37 4.9009,12 1.1776,3.63 4.2252,10.773 6.7725,15.8734 2.5473,5.1003 4.6315,10.1107 4.6315,11.1342 0,1.0234 1.5871,5.0049 3.527,8.8478 1.9398,3.8429 4.6352,10.2766 5.9897,14.2973 1.3545,4.0207 3.8173,9.3065 5.473,11.7463 1.6556,2.4397 3.0103,5.256 3.0103,6.2584 0,2.063 6.9491,17.825 15.7138,35.6426 3.2467,6.6 5.8993,12.9109 5.8946,14.0242 0,1.1132 2.4059,5.5506 5.3568,9.8607 2.9508,4.3102 7.3372,11.7527 9.7475,16.5389 2.4103,4.7863 6.4741,12.0142 9.0306,16.0621 6.8999,10.9252 13.8367,26.6703 16.5458,37.5552 1.3185,5.2973 3.5754,11.9412 5.0157,14.7642 1.4401,2.823 3.5617,8.431 4.7144,12.462 3.2593,11.3972 11.3807,23.3327 15.8762,23.3327 1.2525,0 4.5334,1.2971 7.2909,2.8824 2.7576,1.5852 6.7848,3.2517 8.9496,3.7032 2.1647,0.4515 7.2947,2.1642 11.4,3.8059 4.1052,1.6419 10.4341,3.7757 14.0641,4.7418 3.63,0.9662 10.92,4.3384 16.2,7.4938 5.28,3.1554 11.1104,6.3751 12.9565,7.155 4.3187,1.8245 38.4672,1.8788 48.2435,0.077 3.96,-0.73 10.035,-1.5004 13.5,-1.7122 l 6.3,-0.385 0,39.3907 c 0,45.182 1.4418,40.5823 -13.2,42.1095 -32.6472,3.4054 -46.88,6.7659 -58.8616,13.8977 -5.1045,3.0385 -8.6757,12.8985 -7.9827,22.0403 0.6149,8.1122 3.627,14.5675 12.5745,26.9485 5.8727,8.1263 7.7424,9.8499 12.5525,11.5708 3.1086,1.1121 9.0417,4.7286 13.1847,8.0364 10.0761,8.0453 36.256,35.8659 40.1901,42.7091 1.0907,1.8974 1.4681,18.3009 1.5,65.1975 0.038,55.8883 -0.1569,62.5859 -1.8019,61.9546 -1.0144,-0.3893 -2.6636,-2.2921 -3.665,-4.2286 -1.0014,-1.9364 -5.4699,-7.6759 -9.9299,-12.7545 -4.4601,-5.0786 -10.4519,-12.7438 -13.3153,-17.0338 -2.8635,-4.29 -7.5023,-9.96 -10.3085,-12.6 -2.8062,-2.64 -10.8126,-11.01 -17.7921,-18.6 -6.9794,-7.59 -18.1041,-19.47 -24.7214,-26.4 -29.7952,-31.2029 -38.4234,-40.617 -38.4234,-41.9236 0,-0.7708 -3.645,-5.354 -8.1,-10.1847 -4.455,-4.8307 -9.3053,-10.6075 -10.7784,-12.8374 -1.473,-2.2298 -3.8214,-5.8093 -5.2184,-7.9543 -3.5247,-5.4113 -6.7644,-5.4113 -3.9015,0 1.1349,2.145 2.4955,6.87 3.0237,10.5 0.5281,3.63 1.5441,10.65 2.2579,15.6 0.7137,4.95 1.8549,12.78 2.5358,17.4 1.7239,11.6968 2.6599,105.2004 1.1292,112.8 -3.1626,15.7012 -3.6387,20.2709 -3.6261,34.8 0.012,8.58 0.2812,23.9554 0.6086,34.1675 0.3272,10.2121 0.2864,19.7971 -0.091,21.3 l -0.6858,2.7325 -28.6963,0 c -26.9659,0 -28.7392,-0.1351 -29.4077,-2.2415 -0.3912,-1.2329 -0.1577,-3.698 0.5191,-5.4781 0.6768,-1.7802 1.2306,-4.8395 1.2306,-6.7984 0,-1.959 1.4411,-6.3788 3.2023,-9.8218 3.3632,-6.5747 3.3915,-6.7978 6.4182,-50.6602 0.592,-8.58 1.728,-19.92 2.5245,-25.2 1.9514,-12.9377 1.9451,-77.1061 -0.012,-90.6 -0.8124,-5.61 -1.9588,-13.98 -2.5474,-18.6 -1.3725,-10.7729 -2.5567,-15.8244 -6.4355,-27.4531 -1.7342,-5.1993 -3.1878,-11.6793 -3.2301,-14.4 -0.042,-2.7208 -0.759,-8.1814 -1.5924,-12.1347 l -1.5154,-7.1878 -4.7076,0.3577 c -2.5892,0.1967 -7.9476,1.1009 -11.9076,2.0094 -3.96,0.9085 -15.0309,1.8739 -24.6021,2.1453 -13.0882,0.3712 -18.3536,0.9855 -21.2404,2.4784 -2.1111,1.0916 -6.1601,2.0005 -8.9979,2.0197 -2.8378,0.019 -8.9396,1.1037 -13.5596,2.4097 -4.62,1.3061 -11.1,2.959 -14.4,3.6729 -3.3,0.714 -11.13,2.5681 -17.4,4.1204 -6.866,1.6999 -17.0801,3.1126 -25.6817,3.552 -8.0871,0.4132 -16.088,1.4845 -18.4465,2.4699 -4.4862,1.8745 -41.93084,2.2873 -65.2952,0.72 -10.6662,-0.7156 -11.92152,-1.0656 -15.24372,-4.2504 -3.54132,-3.395 -3.81936,-3.4526 -12.74688,-2.6436 -5.01948,0.4549 -10.5798,1.4199 -12.35616,2.1446 -4.30836,1.7576 -12.59664,3.14 -27.8298,4.6418 -6.93,0.6833 -14.22,1.8162 -16.2,2.5176 -7.34112,2.6008 -13.68852,3.5957 -33.6,5.2666 -46.28676,3.884 -98.69713,13.7584 -118.05253,22.2415 -2.88888,1.2661 -6.3396,2.3021 -7.66824,2.3021 -1.32864,0 -6.7506,1.4378 -12.04872,3.1951 -8.74296,2.9001 -10.30728,3.0789 -16.93176,1.9356 -6.81948,-1.1768 -8.08668,-0.9984 -19.29876,2.7177 -6.6,2.1874 -14.97,5.2904 -18.6,6.8954 -3.63,1.6051 -9.57,3.591 -13.2,4.413 -3.63,0.8221 -8.49,2.3095 -10.8,3.3053 -2.31,0.9957 -8.79,2.2163 -14.4,2.7122 -5.6754,0.5017 -13.12764,2.0713 -16.8,3.5385 -3.63,1.4502 -9.03,3.3554 -12,4.2338 -8.38296,2.4794 -23.13468,8.9618 -25.79784,11.3366 -7.34952,6.5536 -32.40829,17.3242 -49.20217,21.1479 -5.28,1.2021 -11.49,3.0996 -13.8,4.2165 -2.31,1.1171 -7.17,2.6742 -10.8,3.4602 -6.97248,1.51 -13.4664,3.0758 -20.4,4.9186 -2.31,0.614 -11.85984,1.1292 -21.22188,1.1449 -9.52512,0.016 -18.50964,0.6132 -20.4,1.3559 -4.25568,1.6718 -26.2932,3.1494 -69.85092,4.6834 -33.19584,1.169 -34.3422,1.2924 -44.54244,4.7946 -5.75832,1.9772 -12.36528,3.5948 -14.68212,3.5948 -2.31696,0 -7.11288,1.3268 -10.65769,2.9486 -4.43856,2.0307 -9.6204,3.1818 -16.64496,3.6981 -5.61,0.4121 -11.82,1.308 -13.8,1.9907 -15.25464,5.2602 -100.2174,4.8027 -135,-0.7268 -33.715355,-5.3598 -38.071367,-6.3873 -46.2,-10.8978 -6.425856,-3.5655 -14.427768,-5.0208 -36.600001,-6.6562 -10.230001,-0.7546 -21.570001,-2.1383 -25.200001,-3.0749 -7.238736,-1.8678 -36.337958,-11.2872 -46.800002,-15.1492 -33.855721,-12.4974 -41.309366,-15.5478 -44.451518,-18.1917 -1.990524,-1.6749 -5.62824,-3.4104 -8.083812,-3.8567 -4.962252,-0.9018 -14.862577,-5.5551 -19.444909,-9.1392 -1.63914,-1.2822 -6.910677,-4.1471 -11.714537,-6.3666 -4.80385,-2.2195 -10.37884,-5.2066 -12.38885,-6.6378 -2.01001,-1.4313 -3.80427,-2.4084 -3.98725,-2.1714 -0.18298,0.237 -1.02113,4.4809 -1.86258,9.4309 -0.84144,4.95 -1.96603,10.62 -2.49908,12.6 -0.53307,1.98 -1.83716,8.46 -2.898,14.4 -3.43307,19.2229 -20.7748,110.6917 -25.98211,137.0423 -0.85496,4.3265 -1.91544,6.4587 -3.45516,6.9475 -1.22186,0.3878 -6.72396,-0.3632 -12.22688,-1.6691 -18.3458,-4.3531 -17.35019,-4.3527 -18.8654,-0.012 -0.73696,2.1141 -1.33992,5.2631 -1.33992,6.9979 0,1.7349 -1.08617,4.0842 -2.41372,5.221 -2.88102,2.4667 -3.31449,2.5137 -5.24521,0.5666 -1.16039,-1.1701 -1.19048,-3.3064 -0.13682,-9.7143 1.28711,-7.8275 1.23406,-8.2585 -1.12677,-9.1536 -2.77349,-1.0517 -17.72631,-4.4905 -36.67749,-8.4349 -6.93,-1.4424 -15.98634,-3.6519 -20.1252,-4.91 -4.13886,-1.2579 -8.99886,-2.293 -10.8,-2.3001 -1.80114,-0.012 -5.92883,-0.8182 -9.17265,-1.8022 -3.24382,-0.984 -6.09616,-1.5908 -6.33852,-1.3485 -0.99534,0.9954 -5.27526,17.5026 -6.42059,24.7636 -1.6419,10.4092 -1.91796,11.1573 -4.77614,12.9423 -2.04919,1.2797 -2.76891,1.2271 -4.31067,-0.3147 -1.66769,-1.6676 -1.58983,-2.9475 0.78707,-12.9391 4.59007,-19.2949 5.75187,-25.4666 4.94311,-26.2584 -0.43253,-0.4236 -6.01524,-1.9446 -12.40603,-3.3803 -6.3908,-1.4355 -12.22745,-3.3426 -12.97035,-4.2376 -1.02318,-1.2329 0.72905,-12.0531 7.22578,-44.6199 4.71707,-23.6457 8.99954,-45.9623 9.5166,-49.5923 1.02224,-7.1766 9.71694,-52.6792 12.84065,-67.2 3.13734,-14.5842 4.71776,-19.6099 6.51428,-20.7154 1.49829,-0.9221 49.64348,9.2721 94.69267,20.0502 6.93,1.658 13.41,2.9948 14.4,2.9708 2.9701,-0.072 -10.52286,-5.7497 -21.52502,-9.0571 -5.65124,-1.6989 -19.45499,-6.0499 -30.67499,-9.6691 -12.13545,-3.9144 -24.04613,-6.9621 -29.4,-7.5226 -6.67392,-0.6988 -11.75713,-2.2235 -19.66782,-5.8996 -5.86729,-2.7264 -11.46482,-4.9572 -12.43893,-4.9572 -0.97413,0 -4.27361,-0.784 -7.3322,-1.7422 -17.52383,-5.4903 -33.61789,-10.2641 -36.76105,-10.9042 -1.98,-0.4031 -12.78,-3.5944 -24,-7.0915 -19.3638,-6.0355 -33.74026,-9.1727 -52.95648,-11.5559 -4.70608,-0.5836 -13.34608,-1.892 -19.2,-2.9076 -5.85394,-1.0156 -19.28353,-2.6456 -29.84353,-3.6224 -10.56,-0.9767 -21.74187,-2.3052 -24.8486,-2.9523 -3.10674,-0.6471 -15.78647,-1.7724 -28.17719,-2.5007 -12.39071,-0.7282 -22.90807,-1.5586 -23.37191,-1.8453 -1.64369,-1.0159 -29.31906,-4.0588 -37.0023,-4.0685 -4.29,0 -11.85,-0.7757 -16.8,-1.7117 -4.95,-0.9361 -14.67,-2.0586 -21.6,-2.4943 -6.93,-0.4358 -16.84465,-1.5599 -22.03257,-2.4979 -5.18791,-0.9379 -16.64622,-1.7055 -25.46292,-1.7055 -13.96039,0 -17.23604,-0.3962 -25.36743,-3.0686 -15.22418,-5.0033 -27.88879,-4.4641 -50.13709,2.1346 -14.61795,4.3354 -23.0673,12.6458 -22.30117,21.934 0.21775,2.64 0.36198,28.29 0.3205,57 -0.0637,44.1122 -0.36546,53.0136 -1.94738,57.4509 -1.02957,2.888 -1.87195,6.1869 -1.87195,7.331 0,2.776 -7.14204,17.6713 -13.81775,28.8181 -2.9645,4.95 -8.42466,14.94 -12.13365,22.2 -3.709,7.26 -7.69527,14.55 -8.85838,16.2 -1.16312,1.65 -5.43312,10.56 -9.48888,19.8 -17.59945,40.0958 -23.5231,50.1734 -37.20769,63.3 l -9.69531,9.3 -52.13027,0 c -49.0173,0 -52.10372,-0.1254 -51.68555,-2.1 z m 790.45644,-31.2 c 4.08947,-21.3018 10.53417,-54.201 14.04548,-71.7 1.98651,-9.9 5.53981,-28.26 7.89624,-40.8 2.35643,-12.54 4.76492,-24.69 5.35221,-27 0.58728,-2.31 1.42323,-6.9617 1.85766,-10.337 0.88655,-6.8883 0.82109,-6.9531 -8.99052,-8.901 -18.68458,-3.7093 -64.55585,-13.7337 -82.20001,-17.9633 -4.77795,-1.1453 -49.45097,-10.8913 -51.44809,-11.2241 -1.12106,-0.1867 -2.66503,6.2712 -7.4176,31.0254 -1.64727,8.58 -4.08302,21 -5.41278,27.6 -2.51427,12.4792 -5.47919,27.7997 -12.65651,65.4 -2.33071,12.21 -5.0088,26.0922 -5.95134,30.8494 -2.7186,13.7215 -4.3705,12.2082 18.68632,17.1183 42.76183,9.1067 86.84792,18.8213 108.60001,23.9307 16.15034,3.7937 15.3012,4.1786 17.63893,-7.9984 z m 405.36108,-126.2431 c 6.27,-0.5814 15.72,-1.9062 21,-2.9438 5.28,-1.0377 15.9396,-2.4189 23.68812,-3.0694 9.81156,-0.8237 15.50557,-1.906 18.75793,-3.5652 3.0228,-1.542 9.05844,-2.8 17.112,-3.5664 6.84312,-0.6511 14.60196,-1.7371 17.24196,-2.4132 10.68516,-2.7364 21.80208,-4.9058 25.2,-4.9178 1.98,-0.012 8.73,-1.1198 15,-2.473 6.27,-1.3531 15.45,-2.9189 20.4,-3.4793 4.95,-0.5605 11.43,-1.8684 14.4,-2.9064 2.97,-1.0381 7.44204,-1.8953 9.93804,-1.9049 2.49588,-0.012 9.99108,-1.6375 16.656,-3.6175 6.66492,-1.98 13.14936,-3.6 14.40984,-3.6 1.26048,0 4.40868,-1.08 6.99612,-2.4 2.58744,-1.32 6.75096,-2.4041 9.25224,-2.4091 4.80996,-0.012 18.70248,-3.8107 21.11784,-5.7779 1.90824,-1.5541 23.59764,-8.058 32.62992,-9.7845 16.50192,-3.1544 33.24349,-7.9288 42.00001,-11.9776 5.40624,-2.4998 14.60052,-4.8509 18.9702,-4.8509 4.551,0 19.45428,-8.0277 23.53812,-12.6788 3.21624,-3.6631 3.69168,-5.1027 3.69168,-11.1767 0,-8.9597 -3.26424,-18.7741 -8.34828,-25.1006 -4.72476,-5.8793 -5.70504,-6.2592 -19.85172,-7.6923 -22.60848,-2.2904 -29.4798,-2.4003 -35.23044,-0.5635 -3.06324,0.9785 -7.99957,2.1533 -10.96957,2.6107 -2.97,0.4575 -7.78956,2.208 -10.71012,3.8902 -7.61664,4.3869 -27.98028,9.4033 -57.62112,14.1942 -5.5722,0.9006 -10.88592,1.9271 -11.80824,2.2811 -0.92232,0.3538 -10.8354,1.2157 -22.02924,1.9152 -11.19372,0.6994 -22.89,2.0419 -25.99176,2.9832 -3.72348,1.1299 -11.37444,1.7157 -22.51908,1.7244 -17.85744,0.013 -28.73424,1.4276 -34.69524,4.5102 -2.67384,1.3827 -9.59796,2.1214 -26.42424,2.8194 -12.54048,0.52 -28.20096,1.5643 -34.80097,2.3204 -7.71912,0.8843 -20.85996,1.0996 -36.83556,0.6032 l -24.83556,-0.7716 -6.75084,3.1937 -6.75084,3.1937 -2.8818,-2.7074 c -2.721,-2.5563 -3.52404,-2.6622 -14.38716,-1.8987 -10.08792,0.7092 -11.90268,0.5335 -14.73168,-1.4253 -4.63152,-3.207 -6.8754,-3.9299 -17.62656,-5.6786 -27.5404,-4.4796 -33.69713,-6.1269 -48.37365,-12.9433 -14.02021,-6.5115 -15.07058,-6.8043 -24.536793,-6.8399 -16.272817,-0.061 -26.423257,-1.8535 -33.677114,-5.9473 -3.569916,-2.0147 -9.535128,-4.4561 -13.256028,-5.4253 -3.7209,-0.9691 -8.922829,-3.1898 -11.559853,-4.935 -4.106448,-2.7175 -6.64614,-3.3042 -17.695572,-4.088 -7.095553,-0.5034 -14.790997,-1.7292 -17.10099708,-2.724 -3.85838412,-1.6617 -19.07974892,-2.4446 -36.90000192,-1.8978 l -5.1,0.1564 -0.0096,11.5491 c -0.0096,12.2724 -1.25454,22.2867 -4.3413,34.9229 -1.460304,5.9779 -1.70412,10.6328 -1.055412,20.1501 0.974952,14.3039 1.030692,14.3753 13.805773,17.6715 4.29,1.107 11.58,3.864 16.2,6.1267 11.3353687,5.5518 29.493577,12.3301 36.683438,13.6937 3.231204,0.6127 8.153316,2.2765 10.938024,3.697 7.8936,4.0271 17.711065,7.0871 22.737397,7.0871 2.52072,0 6.351192,1.078 8.51214,2.3956 2.160949,1.3175 5.347885,2.3975 7.082077,2.4 1.73418,0 3.800688,0.7848 4.592232,1.7385 3.826752,4.6109 12.90792,8.9232 21.171529,10.0535 4.68426,0.6407 13.864261,3.0585 20.400001,5.3727 11.71772,4.1492 12.24019,4.2193 37.52693,5.0364 17.27184,0.558 27.066,1.3762 30,2.5062 4.70376,1.8116 34.89852,1.4738 57.75624,-0.646 z m -111.40607,-18.343 c -0.81734,-0.8173 -2.14034,-1.4923 -2.94,-1.5 -0.79967,-0.012 -1.58893,-0.5539 -1.75393,-1.2139 -0.165,-0.66 0.24,-1.146 0.9,-1.08 0.66,0.066 2.82,0.201 4.8,0.3 2.73999,0.1371 3.6,0.7534 3.6,2.58 0,2.6955 -2.3569,3.1631 -4.60607,0.9139 z m 228.78108,-14.9336 c 0.86628,-0.3467 1.90128,-0.3041 2.30004,0.095 0.39876,0.3988 -0.31008,0.6824 -1.575,0.6304 -1.398,-0.058 -1.68228,-0.342 -0.72504,-0.7251 z m -453.795189,-55.2986 c 0.758916,-0.485 1.63242,-4.1217 1.941132,-8.0817 0.308712,-3.96 1.396572,-12.6 2.417448,-19.2 1.020888,-6.6 2.037372,-14.6171 2.258868,-17.8157 l 0.40272,-5.8155 -4.8,-1.5526 c -2.64,-0.8539 -7.769999,-1.8729 -11.399999,-2.2644 -3.63,-0.3915 -9.71797,-1.8102 -13.52884,-3.1525 -3.81086,-1.3423 -10.02086,-2.9431 -13.8,-3.5572 -7.33633,-1.1922 -24.6891,-5.1465 -31.23974,-7.119 -2.18272,-0.6572 -5.83904,-2.8371 -8.12516,-4.8444 -6.31786,-5.5472 -34.00645,-18.5004 -51.50627,-24.0955 -15.62677,-4.9963 -49.8609,-18.1043 -69,-26.4194 -5.61,-2.4373 -13.98,-5.3697 -18.6,-6.5164 -11.91484,-2.9571 -20.49439,-6.0084 -39,-13.8701 -8.91,-3.7852 -18.36,-7.5662 -21,-8.4022 -2.64,-0.8361 -8.58,-3.6798 -13.2,-6.3195 -19.39722,-11.0829 -22.86093,-13.1129 -24.03321,-14.0845 -0.67825,-0.5621 -8.77825,-5.0292 -18,-9.9268 -9.22173,-4.8975 -21.6268,-11.9362 -27.5668,-15.6415 -5.94,-3.7053 -14.96871,-9.2197 -20.06382,-12.254 -10.78734,-6.4245 -20.00395,-14.38 -24.89502,-21.4889 -3.37872,-4.9109 -5.84036,-6.5576 -26.25619,-17.565 -7.23572,-3.9013 -8.71686,-5.3983 -15.78497,-15.955 -4.94537,-7.3862 -9.39922,-12.6179 -12.1697,-14.2949 -2.40335,-1.4547 -7.26335,-4.3604 -10.8,-6.4572 -10.41137,-6.1722 -12.12651,-7.3255 -18.4303,-12.393 -3.3,-2.6528 -7.93102,-5.3523 -10.29114,-5.999 -2.70516,-0.7412 -5.71977,-2.9536 -8.15655,-5.9858 -2.12598,-2.6456 -4.57831,-4.81 -5.44964,-4.81 -3.00622,0 -19.5008,18.6845 -23.9401,27.1186 -2.82829,5.3733 -7.45087,11.3214 -13.16389,16.9383 -8.62428,8.4793 -25.39322,31.278 -33.18533,45.118 -2.15982,3.8362 -6.43835,9.7762 -9.50784,13.2 -8.55092,9.5381 -14.6627,17.2774 -22.24128,28.1642 -3.80537,5.4665 -9.05095,11.6765 -11.65686,13.8 -3.01169,2.4542 -6.50831,7.3296 -9.59675,13.381 -4.34193,8.5075 -4.74983,10.0294 -3.83469,14.307 0.83804,3.9173 1.89985,5.2493 5.84522,7.3326 2.65164,1.4002 7.34393,5.0686 10.42732,8.152 3.08338,3.0834 6.85387,5.8375 8.37884,6.1203 1.52497,0.2829 8.98268,1.7077 16.57268,3.1665 7.59199,1.4592 22.97708,3.1519 34.20001,3.7629 11.22,0.6109 21.96558,1.6345 23.87906,2.2747 1.9135,0.6401 5.26851,1.1639 7.45558,1.1639 2.18708,0 6.71649,1.08 10.06536,2.4 5.1234,2.0195 9.07859,2.4161 24.94442,2.5013 10.37057,0.055 22.09558,0.6206 26.05558,1.2554 3.96,0.6348 13.00391,1.0814 20.09759,0.9924 20.56858,-0.2581 70.25254,4.5878 81.30241,7.9298 4.98656,1.5081 12.32039,2.0698 30.00001,2.2977 22.6869,0.2925 23.85711,0.4305 38.4,4.5292 8.25,2.3251 17.89395,4.5391 21.43101,4.9199 4.16636,0.4485 8.39212,1.9412 12,4.2387 7.86141,5.0064 19.06288,9.7356 23.05924,9.7356 6.91029,0 16.09162,2.802 22.39625,6.8351 5.83373,3.7318 16.15238,7.5097 29.7135,10.8788 2.64,0.6558 15.87,5.0114 29.4,9.6788 16.30485,5.6247 28.03946,8.9427 34.8,9.84 15.3413,2.036 33.30263,7.5176 46.44308,14.174 6.51854,3.3019 15.76694,6.8674 20.75693,8.002 9.45841,2.1508 24.67848,7.3996 27.40385,9.4506 3.33385,2.5089 28.957641,4.2787 32.175981,2.2224 z m -81.829181,-33.9615 c -1.10441,-1.787 0.17608,-2.7585 2.47365,-1.8769 1.06029,0.4069 1.59171,1.2836 1.18094,1.9482 -0.9727,1.5739 -2.65813,1.5409 -3.65459,-0.071 z m -142.37566,-47.5399 c 0.86624,-0.3467 1.90126,-0.3041 2.3,0.095 0.39875,0.3988 -0.31,0.6824 -1.575,0.6304 -1.39794,-0.058 -1.68228,-0.342 -0.725,-0.7251 z m 1001.24824,55.9354 c 5.48724,-2.0265 12.05424,-4.7103 14.59344,-5.9643 3.97044,-1.9607 5.3334,-2.0881 9.7374,-0.9102 4.87908,1.305 5.62248,1.1245 15.74904,-3.8228 l 10.62828,-5.1925 19.83432,-0.9718 c 21.585,-1.0576 29.5764,-2.151 36.03432,-4.9302 2.31001,-0.9941 7.22329,-2.1438 10.91833,-2.5548 3.69504,-0.411 9.09504,-1.5949 12,-2.6308 3.414,-1.2174 12.91992,-2.2776 26.88168,-2.9979 11.88,-0.6129 25.38,-1.9319 30,-2.9311 4.62,-0.9993 13.8,-2.101 20.4,-2.4482 7.50372,-0.3949 14.69772,-1.5604 19.2,-3.111 3.96,-1.3638 9.9,-2.4218 13.2,-2.3511 21.45468,0.4596 29.18652,0.297 42,-0.8827 24.22872,-2.231 35.93988,-5.0802 52.45392,-12.7619 4.9931,-2.3225 10.8576,-3.6605 21.6,-4.9281 8.1103,-0.957 19.0661,-2.2741 24.3461,-2.927 5.28,-0.6529 14.1409,-1.7298 19.6908,-2.3932 5.55,-0.6633 17.7511,-1.2061 27.1137,-1.2061 18.7934,0 19.1442,-0.082 43.1955,-10.0809 7.26,-3.0184 14.6014,-5.495 16.314,-5.5035 1.7128,-0.012 4.1428,-1.155 5.4,-2.5476 1.2574,-1.3927 5.796,-4.8206 10.086,-7.6177 9.5771,-6.2443 11.2326,-8.1078 13.6753,-15.3936 1.6299,-4.8611 1.7305,-7.4926 0.6556,-17.133 -0.6985,-6.2644 -2.1133,-15.0199 -3.1441,-19.4567 -1.0307,-4.4369 -2.3192,-12.657 -2.8632,-18.267 -1.9018,-19.6105 -4.0065,-26.1231 -10.0676,-31.1535 -1.0208,-0.8472 -1.856,-2.9694 -1.856,-4.716 0,-3.3126 -7.1207,-18.4781 -11.687,-24.8911 -1.453,-2.0404 -5.4154,-9.319 -8.8054,-16.1746 -3.39,-6.8556 -7.3575,-14.0848 -8.8167,-16.0648 -1.4592,-1.98 -5.4861,-8.5844 -8.9488,-14.6767 -3.4626,-6.0922 -6.7222,-11.3401 -7.2434,-11.6622 -1.3303,-0.8223 -8.9754,-16.8601 -11.4694,-24.0611 -5.1616,-14.9021 -6.9518,-19.3274 -8.5335,-21.0944 -0.9327,-1.042 -1.7057,-2.662 -1.7177,-3.6 -0.022,-1.6575 -4.6934,-9.425 -9.3266,-15.5056 -1.2572,-1.65 -2.5786,-5.2337 -2.9363,-7.9638 -0.3642,-2.7794 -2.8547,-8.5883 -5.6594,-13.2 -10.8394,-17.8225 -15.1977,-24.4288 -18.2507,-27.6642 -1.7501,-1.8546 -4.0096,-5.3851 -5.0213,-7.8457 -2.3447,-5.7028 -8.1552,-9.316 -14.9906,-9.3219 -2.8637,0 -11.5037,-1.0368 -19.2,-2.2986 -7.6962,-1.2618 -21.0132,-3.1968 -29.5932,-4.3 -8.58002,-1.1032 -22.89002,-3.0136 -31.80002,-4.2454 -8.91,-1.2318 -25.11,-2.8208 -36,-3.5312 -22.81668,-1.4885 -48.83424,-4.2776 -55.8,-5.9818 -5.92536,-1.4497 -21.92052,-2.9917 -57,-5.4954 -15.01368,-1.0715 -29.13084,-2.6784 -31.8,-3.6197 -12.28273,-4.3316 -27.26077,-5.7822 -67.80001,-6.5659 -37.54116,-0.7256 -43.49316,-1.2346 -55.19208,-4.7182 -2.30568,-0.6865 -10.77552,-1.2482 -18.82188,-1.2482 -8.04636,0 -16.03512,-0.53436 -17.7528,-1.1874 -1.71768,-0.65304 -9.44784,-1.76532 -17.17812,-2.47176 -7.73028,-0.70656 -16.80168,-2.06196 -20.15868,-3.01212 -8.42412,-2.3844 -30.5136,-3.6462 -33.72672,-1.9266 -3.02292,1.61784 -4.24164,9.00568 -1.977,11.98428 0.84204,1.1075 1.54932,3.6336 1.57164,5.6136 0.0648,5.7226 5.76264,37.6248 8.26956,46.3013 1.25568,4.3457 5.9172,14.4745 10.35912,22.5086 4.4418,8.034 9.56112,18.2485 11.37624,22.6987 1.81512,4.4502 7.61664,16.7314 12.89232,27.2914 10.70124,21.4201 14.93196,31.0168 17.19336,39 0.84132,2.97 4.467,11.758 8.05728,19.5288 6.58056,14.2436 8.5554,22.4573 8.64852,35.9712 l 0.0396,5.7 139.8,0 139.80001,0 0.018,-3.9 c 0.036,-7.5482 -1.24512,-7.2788 39.19512,-8.2464 55.27294,-1.3225 60.38714,-1.2851 60.94644,0.4464 0.2665,0.825 0.852,12.7894 1.301,26.5875 l 0.8165,25.0874 4.3413,-8.2874 c 5.3786,-10.2681 19.3148,-24.4941 30.19,-30.8182 4.2852,-2.4919 12.1113,-5.9605 17.3913,-7.7081 8.4765,-2.8056 11.4957,-3.1775 25.8,-3.1775 14.3042,0 17.3234,0.3719 25.8,3.1775 13.5378,4.4808 23.7437,10.8128 34.3158,21.2907 24.4033,24.1856 30.642,61.677 15.4669,92.9481 -10.3884,21.4072 -27.0593,35.9577 -49.7827,43.4507 -8.4622,2.7904 -11.5201,3.1656 -25.8,3.1656 -14.3043,0 -17.3235,-0.3719 -25.8,-3.1775 -5.28,-1.7475 -13.1061,-5.2161 -17.3913,-7.7081 -10.1136,-5.8812 -24.7587,-20.5498 -29.6829,-29.7307 l -3.8619,-7.2 -0.032,9.2292 c -0.02,5.9653 -0.5526,9.5509 -1.5042,10.1391 -1.2765,0.789 -51.80288,2.4607 -82.75868,2.7382 l -10.431,0.094 -0.369,5.1 -0.369,5.1 -136.3518,0.3051 -136.35181,0.3051 -0.52752,6.36 c -0.29004,3.498 -1.70676,8.7963 -3.14808,11.7738 -1.44144,2.9776 -2.63268,6.7283 -2.6472,8.3349 -0.0144,1.6067 -1.0944,5.2751 -2.4,8.1522 -1.30548,2.8771 -2.3736,6.753 -2.3736,8.613 0,2.3612 -1.13112,4.2672 -3.7476,6.315 l -3.7476,2.9329 1.98468,5.9754 c 1.09164,3.2866 2.76084,7.0008 3.70944,8.2541 0.9486,1.2531 1.74192,4.0081 1.76292,6.122 0.066,6.6497 2.1246,9.213 10.61064,13.2123 10.15944,4.7878 14.47644,4.8297 26.85072,0.2599 z m 125.55181,-37.9354 c 0.86628,-0.3467 1.90128,-0.3041 2.30004,0.095 0.39876,0.3988 -0.31008,0.6824 -1.575,0.6304 -1.398,-0.058 -1.68228,-0.342 -0.72504,-0.7251 z m 83.7054,-7.4503 c -0.825,-1.3349 1.67184,-2.6417 7.94604,-4.1586 3.69876,-0.8944 5.35032,0.6901 2.8674,2.7507 -2.45304,2.0358 -9.83172,2.9966 -10.81344,1.4079 z m 229.11962,-231.73 c -0.4079,-0.66 -0.1698,-1.2 0.5292,-1.2 0.6989,0 1.2708,0.54 1.2708,1.2 0,0.66 -0.2381,1.2 -0.5292,1.2 -0.291,0 -0.8629,-0.54 -1.2708,-1.2 z m -3.3117,196.8125 c 19.8286,-4.7537 36.3372,-15.9337 46.9431,-31.7908 15.7544,-23.5548 16.9888,-52.2114 3.3595,-77.9926 -8.3366,-15.7698 -28.2919,-30.9182 -47.5909,-36.1271 -10.291,-2.7776 -28.0846,-2.7869 -38.2961,-0.02 -25.4773,6.9032 -45.6767,25.8302 -53.6393,50.2605 -2.6539,8.1426 -3.2127,12.0494 -3.2127,22.4574 0,10.4081 0.5588,14.3148 3.2127,22.4574 8.2173,25.2114 29.0004,44.1334 55.6797,50.6931 12.0538,2.9637 21.3687,2.981 33.544,0.062 z m -195.28832,-75.6125 0,-62.4 -138.60001,0 -138.6,0 0,62.4 0,62.4 138.6,0 138.60001,0 0,-62.4 z m 67.56192,49.6626 27.3618,-0.7338 -0.7954,-32.5644 c -0.4374,-17.9105 -1.1402,-45.7944 -1.5619,-61.9644 l -0.7664,-29.4 -19.20002,0.3167 c -10.56,0.1742 -29.67048,0.6536 -42.46764,1.0655 l -23.26776,0.7488 0.7758,35.5345 c 0.42672,19.544 1.11564,47.4836 1.53096,62.0881 l 0.75528,26.5537 15.13668,-0.4555 c 8.32512,-0.2504 27.44952,-0.7856 42.4986,-1.1892 z m -1743.77755,-79.3626 c 2.34934,-2.475 6.33885,-8.01 8.86558,-12.3 2.52673,-4.29 7.94783,-11.31 12.04688,-15.6 4.09907,-4.29 8.32806,-9.5454 9.39779,-11.6788 1.06972,-2.1332 3.56527,-5.0766 5.54567,-6.5408 2.22564,-1.6454 6.09624,-7.5408 10.13527,-15.437 3.594,-7.0263 7.45446,-13.5329 8.5788,-14.4592 1.12435,-0.9263 4.16382,-4.3842 6.75438,-7.6842 2.59057,-3.3 10.41957,-12.1259 17.39776,-19.6132 11.48131,-12.3188 12.7758,-14.1708 13.61486,-19.4787 1.29754,-8.2081 3.47512,-12.205 7.83822,-14.3866 2.0663,-1.0332 6.70714,-5.0832 10.31297,-9 5.9023,-6.4113 6.50332,-7.5561 6.02699,-11.4798 -0.29616,-2.4395 0.0497,-4.716 0.78565,-5.1708 1.46559,-0.9057 1.70316,-8.3585 0.49895,-15.6517 -1.5246,-9.2338 -17.21036,-20.9484 -36.9842,-27.6212 -3.3,-1.1136 -9.50766,-3.3237 -13.79481,-4.9114 -4.28713,-1.5876 -9.88154,-2.8866 -12.43202,-2.8866 -5.74655,0 -16.32119,-5.4599 -23.94455,-12.3629 -3.05947,-2.7704 -8.32512,-9.6271 -11.70147,-15.2371 -3.37633,-5.61 -7.13402,-11.28 -8.35043,-12.6 -1.2164,-1.32 -6.62383,-11.5447 -12.01651,-22.72152 -9.64573,-19.99176 -15.56022,-35.41464 -15.56022,-40.57548 0,-1.44252 -0.73609,-4.80084 -1.63575,-7.46292 -0.89967,-2.66208 -2.27658,-6.73008 -3.05982,-9.04008 -4.06577,-11.99124 -5.54736,-54.33684 -2.6871,-76.80001 0.71432,-5.61 1.65951,-27.48 2.10042,-48.6 0.77688,-37.21356 0.88965,-38.57532 3.64999,-44.076 1.56659,-3.1218 3.93781,-8.43996 5.26938,-11.8182 1.33157,-3.37812 3.68079,-7.84404 5.22051,-9.924 2.46137,-3.32508 3.85019,-8.32764 6.04709,-21.7818 1.35031,-8.26956 2.85748,-14.61684 4.27403,-18 3.34619,-7.99152 6.24842,-23.64228 7.12085,-38.4 1.24088,-20.99076 8.29049,-58.02877 13.93249,-73.20001 1.47268,-3.96 3.36077,-9.63 4.19577,-12.6 0.83499,-2.97 2.28406,-7.81332 3.22017,-10.76292 2.49933,-7.87512 4.83787,-21.9618 5.66791,-34.14144 0.40122,-5.88744 1.32106,-11.41728 2.04407,-12.28848 1.08517,-1.30752 -8.81389,-1.63836 -56.7227,-1.89552 l -58.03731,-0.31164 0,-28.8 0,-28.8 67.2,0 67.2,0 0.33809,14.1 0.33808,14.1 3.02151,0 c 1.66182,0 4.47969,0.75288 6.26192,1.67316 4.56582,2.35764 22.44236,5.52684 31.17486,5.52684 4.04108,0 10.209,-0.5766 13.70648,-1.28124 13.00672,-2.6208 26.85848,-6.24936 29.99948,-7.85856 4.84752,-2.48364 13.74474,-1.96764 23.12172,1.34076 7.0734,2.49564 9.07697,2.75784 13.00041,1.70136 5.62527,-1.51464 9.98524,-0.6918 19.43746,3.66828 3.96,1.82664 10.64992,3.97248 14.86646,4.76844 4.21657,0.79596 9.6842,2.78244 12.15029,4.41444 3.42504,2.26668 7.14026,3.25236 15.73354,4.17456 24.68191,2.64888 31.89958,3.6504 37.64971,5.22396 3.3,0.90324 10.11725,2.1546 15.14945,2.781 7.40986,0.92232 10.39951,1.9686 15.7242,5.50296 3.61613,2.40024 7.93106,4.36404 9.58874,4.36404 1.65768,0 4.37727,1.07244 6.04356,2.38308 6.1708,4.854 24.7688,7.44444 33.30198,4.63848 2.30564,-0.75816 8.51208,-1.74672 13.79208,-2.19672 13.48772,-1.14948 39.01283,-5.81328 42.63317,-7.78956 1.66825,-0.91068 6.52825,-2.01012 10.8,-2.44332 4.27176,-0.43308 18.98807,-3.47928 32.70291,-6.7692 l 24.93609,-5.98164 28.11047,0.37944 28.11047,0.37944 12.95345,6.72816 c 13.82289,7.17972 34.52901,14.27184 41.66783,14.27184 3.38187,0 5.46835,1.04076 9.45694,4.71732 2.81475,2.59452 8.82603,6.6846 13.35842,9.08916 12.21661,6.48096 46.890671,38.55384 47.695595,44.11752 0.452328,3.12648 10.737853,11.18904 16.574665,12.9924 2.31,0.71376 9.653136,1.65456 16.318081,2.09064 6.884676,0.45048 12.90972,1.45092 13.951164,2.31636 1.173492,0.97524 8.903316,1.9308 21.481921,2.6556 10.806864,0.6228 20.7572888,1.45728 22.1120769,1.85472 1.5755281,0.462 6.3326043,-1.10232 13.2000001,-4.34064 7.735861,-3.64788 12.246049,-5.05524 16.136761,-5.0352 62.110335,0.3192 59.983647,0.44364 74.400006,-4.35048 13.26014,-4.40964 18.66336,-5.99772 21.6,-6.34884 l 3,-0.35856 0.6,-35.4 0.6,-35.4 46.2,-0.31644 c 39.94212,-0.2736 46.37892,-0.0732 47.52108,1.48464 1.1244,1.533 7.734,1.848 44.4,2.11644 l 43.07893,0.31536 0.57324,16.2 0.57324,16.2 0.62676,-19.8 0.62676,-19.8 46.8,0 46.8,0 0.3174,36.91884 0.31728,36.91884 4.77984,4.3182 c 2.62896,2.37516 6.26616,7.07268 8.08272,10.43928 2.07576,3.84684 4.31208,6.3594 6.01944,6.76284 1.49412,0.35316 4.19412,2.84844 6,5.5452 3.62616,5.41524 14.0748,15.08773 19.19616,17.77021 9.47568,4.96332 15.08172,15.20136 14.85396,27.1266 -0.16296,8.532 2.05356,26.40924 3.2712,26.38452 0.41916,-0.012 4.17792,-1.08624 8.35308,-2.39508 16.39944,-5.1408 43.5432,-5.09508 60.80892,0.102 19.82005,5.9664 37.95469,19.86144 44.69053,34.2426 2.95392,6.30636 3.30948,8.41944 3.30948,19.6656 0,11.24616 -0.35556,13.35924 -3.30948,19.6656 -8.50896,18.16668 -33.83508,34.23084 -58.90525,37.3632 -5.75808,0.7194 -6.792,1.19568 -6.11832,2.81844 0.4458,1.074 1.2864,3.95772 1.86792,6.40824 0.5814,2.4504 2.1042,6.5004 3.38376,9 2.97432,5.80956 3.5154,20.38932 1.38264,37.25388 -0.8562,6.77016 -1.20264,13.72032 -0.7698,15.44484 0.43284,1.72453 1.28844,8.60533 1.90128,15.29065 0.61296,6.68532 2.47632,17.43516 4.14084,23.88852 1.66452,6.45324 3.0264,14.17512 3.0264,17.15952 0,2.98452 0.76368,6.90312 1.69716,8.70816 0.93336,1.80504 2.06052,5.42328 2.50476,8.04048 1.3134,7.73844 1.69968,8.5284 4.87764,9.97632 1.66837,0.7602 6.65293,1.37844 11.07697,1.37388 7.06344,-0.012 17.39928,1.73652 36.24348,6.11484 2.97,0.69 15.12,2.28288 27,3.53964 11.88,1.25676 24.84,2.79048 28.8,3.40836 7.33632,1.14456 23.60232,5.38716 25.755,6.7176 1.82748,1.12944 21.62112,4.18332 27.26688,4.20684 2.76204,0.012 6.45072,0.56424 8.19696,1.2282 1.74636,0.66396 15.41652,1.74552 30.37812,2.40348 14.96172,0.65808 38.27304,1.97772 51.80304,2.93268 13.53001,0.95484 30.87901,1.76328 38.55349,1.7964 9.75852,0.042 15.28896,0.61824 18.39576,1.9164 3.62352,1.51404 14.43228,2.07468 58.64652,3.04236 45.63348,0.99864 55.81704,1.5438 64.40424,3.44712 5.61,1.24356 13.44,2.59224 17.4,2.99724 3.96,0.405 11.52,2.274 16.80002,4.15332 23.798,8.47046 35.1896,8.10286 39.0681,-1.26072 2.1036,-5.07864 2.2205,-33.53952 0.1841,-44.83548 -0.8329,-4.62 -2.6537,-10.56 -4.0461,-13.2 -1.3926,-2.64 -6.4538,-12.63 -11.2472,-22.2 -7.5549,-15.08376 -9.8919,-18.59808 -17.5555,-26.4 -11.80978,-12.02292 -15.37546,-19.48872 -26.3635,-55.20001 -5.5254,-17.95776 -17.46108,-39.46224 -29.47404,-53.10348 -2.18124,-2.47692 -3.96588,-5.11308 -3.96588,-5.85828 0,-0.7452 -1.1868,-3.27528 -2.63748,-5.62248 -1.45056,-2.34708 -3.85008,-7.73772 -5.33208,-11.97924 -1.48212,-4.2414 -4.03704,-9.67476 -5.67756,-12.07416 -1.64064,-2.39928 -4.30896,-7.33236 -5.92956,-10.96236 -1.62072,-3.63 -5.70552,-11.19 -9.07728,-16.8 -3.37176,-5.61 -7.20696,-12.52344 -8.52264,-15.36312 -1.3158,-2.83968 -4.82928,-8.57832 -7.8078,-12.7524 -2.97864,-4.17408 -5.4174,-8.06064 -5.41968,-8.63688 -0.012,-1.84836 -6.73656,-17.63748 -10.32348,-24.22236 -1.9098,-3.50604 -4.69224,-8.63604 -6.18324,-11.4 -1.49088,-2.76384 -3.69816,-6.37524 -4.90512,-8.02524 -1.20684,-1.65 -3.72504,-6.51 -5.59608,-10.8 -4.06224,-9.31405 -6.5382,-12.81241 -15.44436,-21.82165 -3.70896,-3.75192 -6.74364,-7.63416 -6.74364,-8.62716 0,-0.993 -1.88736,-5.48328 -4.19412,-9.97836 -2.30676,-4.49508 -4.19676,-9.34608 -4.2,-10.77996 -0.012,-3.18216 -11.64828,-25.81104 -13.9734,-27.16248 -1.82856,-1.06284 -6.9498,-10.8984 -11.05452,-21.2304 -1.81824,-4.57668 -3.92916,-7.49316 -6.88608,-9.51372 -5.61588,-3.83736 -13.23144,-12.56112 -16.83648,-19.28628 -15.92869,-29.71512 -20.85541,-40.10719 -20.85541,-43.99043 0,-5.6881 -3.03624,-11.76712 -6.71424,-13.44294 -4.30332,-1.96068 -4.95852,-1.80428 -11.12496,2.65522 -3.05844,2.21182 -20.48088,14.05822 -38.71668,26.32531 -22.464,15.11148 -33.87948,22.11312 -35.4,21.7122 -1.2342,-0.32532 -5.48172,-5.55672 -9.43872,-11.62524 -3.957,-6.06864 -19.752,-30.00925 -35.1,-53.20151 -16.81932,-25.41557 -27.89808,-43.29294 -27.88704,-45 0.018,-2.76787 12.47928,-11.71761 63.25848,-45.43226 8.52756,-5.66188 9.84972,-6.98793 9.30156,-9.32929 -0.44916,-1.91893 0.26088,-3.56312 2.39136,-5.5376 1.66668,-1.54458 3.01836,-4.0964 3.00384,-5.67071 -0.0432,-4.70748 -4.29048,-12.63431 -8.38188,-15.64386 -2.10744,-1.5502 -4.91832,-4.97854 -6.24636,-7.61854 -2.63196,-5.23203 -55.11288,-58.41769 -61.57308,-62.4 -4.0668,-2.5069 -8.70756,-5.73871 -19.77228,-13.76941 -13.26504,-9.6277 -16.87044,-11.73519 -21.29076,-12.4452 -2.48004,-0.39837 -7.38636,-2.57991 -10.90272,-4.84787 -4.70376,-3.03376 -8.35092,-4.3474 -13.8,-4.97045 -4.07365,-0.46578 -11.45653,-2.09962 -16.40653,-3.63076 -14.55912,-4.50344 -30.147,-9.97194 -31.62636,-11.09509 -0.75552,-0.57356 -4.99152,-2.23606 -9.4134,-3.69443 -6.86352,-2.26369 -10.43868,-2.62593 -24.43884,-2.47622 -15.07056,0.16116 -16.683,-0.0344 -19.90236,-2.41462 -1.92672,-1.42448 -7.38396,-4.44983 -12.1272,-6.72296 -7.59012,-3.63747 -9.76428,-4.13299 -18.1338,-4.13299 -8.87772,0 -9.9336,-0.2814 -15.8892,-4.23455 -11.33784,-7.52561 -18.26016,-10.14079 -26.87676,-10.15373 -4.29432,-0.006 -9.60312,0.50314 -11.79732,1.13242 -3.11664,0.89385 -5.28444,0.63366 -9.90972,-1.18947 -3.2562,-1.28347 -12.63504,-3.37845 -20.84196,-4.65552 -19.63956,-3.0561 -36.41761,-7.66081 -47.16049,-12.9431 -7.87908,-3.87414 -10.12956,-4.38971 -23.4,-5.36073 -8.0754,-0.59088 -30.6126,-1.53183 -50.0826,-2.09099 -19.47,-0.55915 -37.02,-1.59151 -39,-2.29411 -4.02648,-1.42881 -34.21951,-3.39522 -67.800003,-4.41565 -12.210001,-0.37104 -30.840001,-1.46165 -41.400002,-2.42357 -10.56,-0.96192 -28.110001,-2.30269 -39.000001,-2.97948 -10.8900008,-0.67679 -29.790002,-2.08889 -42.000002,-3.13801 -12.210001,-1.04912 -37.335266,-2.09477 -55.833926,-2.32364 -30.060266,-0.37193 -35.242106,-0.73614 -48.769506,-3.42776 -14.40007,-2.86526 -17.711,-3.041468 -68.13508,-3.626048 -29.14972,-0.337956 -58.97292,-1.2399 -66.27375,-2.004348 -7.92759,-0.830064 -23.00426,-1.14828 -37.43101,-0.790044 -19.88149,0.493692 -25.11243,0.995628 -29.55674,2.836092 -4.21144,1.744044 -7.64506,2.140656 -15.6,1.801968 -5.61,-0.238848 -23.16,-0.325368 -39,-0.192264 -93.01199,0.78162 -168.416,-0.678552 -177.00001,-3.427512 -8.2581,-2.644597 -40.19775,-4.019749 -63,-2.712457 -11.88,0.681109 -24.03,1.818949 -27,2.528533 -14.52765,3.47094 -17.87794,3.673188 -21.92981,1.323888 -3.31745,-1.923468 -6.86944,-2.284308 -24.8702,-2.526444 -13.51825,-0.181848 -25.91658,-1.083337 -34.8,-2.530321 -12.29125,-2.00208 -18.12947,-2.166888 -53.4,-1.507476 -43.81502,0.819156 -78.63426,3.063685 -83.70769,5.395993 -2.07825,0.95538 -4.4478,3.85086 -6.375,7.78991 -2.91738,5.96292 -3.0683,7.25831 -3.08764,26.50387 -0.0108,11.32702 0.5566,22.08345 1.29024,24.43455 0.78226,2.50686 1.55201,20.64762 1.90945,45 0.32938,22.44 1.16023,44.85 1.84636,49.8 1.77986,12.84084 3.48303,22.59659 5.00065,28.64367 1.23768,4.93167 1.58327,24.6402 0.8865,50.55633 -0.17504,6.51065 0.32375,13.45868 1.163,16.2 2.14763,7.01505 3.02465,49.95183 1.38443,67.77832 -2.29493,24.942 -3.05172,62.12217 -1.41714,69.62169 0.79119,3.63 2.49382,13.62 3.7836,22.2 1.2898,8.58 2.87442,18.3 3.52138,21.6 0.64695,3.3 1.96471,12.246 2.92835,19.87992 2.27551,18.02688 2.8097,78.83401 0.75306,85.72009 -1.54013,5.15664 -1.315,23.43864 0.93525,75.94656 1.15558,26.96436 2.52774,37.83996 6.29993,49.93248 0.59689,1.91352 1.08527,13.08336 1.08527,24.82188 0,11.77476 0.55555,22.80408 1.23921,24.60228 0.68158,1.79268 1.8081,8.9118 2.50341,15.82032 0.6953,6.9084 2.02765,14.72472 2.96078,17.36952 0.97026,2.75004 1.6966,9.3384 1.6966,15.38928 0,8.44032 0.48763,11.40696 2.41076,14.66641 1.43128,2.42592 2.91197,8.18256 3.64432,14.16864 0.67846,5.54544 2.2646,13.10604 3.52478,16.8012 1.54166,4.52052 2.71794,13.15728 3.59555,26.4 0.71737,10.82484 2.14389,25.08144 3.17001,31.68144 2.04108,13.128 3.19705,25.06668 5.17056,53.4 1.27302,18.2766 2.48002,28.2965 4.84256,40.2 1.25519,6.3242 2.68996,19.5083 5.35429,49.2 1.49249,16.6326 2.18679,22.1903 5.69662,45.6 1.5764,10.5143 4.36083,18.8446 10.54631,31.552 3.42114,7.0284 4.84424,11.5059 4.84424,15.2414 0,6.1117 2.54604,16.6877 5.29896,22.0112 1.24321,2.4041 1.90104,6.8175 1.90104,12.754 0,7.8689 0.47941,9.9273 3.6,15.4566 3.06895,5.4379 3.6,7.6437 3.6,14.9532 l 0,8.5743 4.5,2.3756 c 6.27975,3.3152 7.62877,3.0971 12.48444,-2.0183 z M 1017.1767,951.22542 c -1.0166,-2.64936 0.336,-4.00188 2.169,-2.16888 1.0823,1.08228 1.0869,1.75308 0.019,2.8206 -1.0675,1.06752 -1.5879,0.9126 -2.1883,-0.65172 z M 715.05103,818.32313 c -10.25292,-1.44876 -19.08012,-5.99712 -27.69696,-14.27136 -12.97956,-12.46368 -18.88656,-26.90556 -18.88656,-46.17528 0,-19.26972 5.907,-33.7116 18.88656,-46.17528 12.40068,-11.90772 26.82156,-16.6098 43.6944,-14.24712 10.93824,1.53168 19.36608,5.79432 28.1688,14.24712 12.97956,12.46368 18.88656,26.90556 18.88656,46.17528 0,18.60444 -5.15856,31.95528 -17.18724,44.48184 -12.8472,13.37904 -27.66432,18.53664 -45.86556,15.9648 z m 16.2756,-7.19592 c 20.25768,-4.29816 35.72388,-21.91392 39.46416,-44.94864 5.60544,-34.52184 -23.77464,-67.76496 -54.54084,-61.71204 -20.8734,4.10652 -36.47568,21.35544 -40.4088,44.6736 -4.60656,27.3108 12.6372,55.39956 37.84452,61.64556 7.77252,1.92588 9.97308,1.96848 17.64096,0.34152 z M 452.03802,615.38404 c -0.31788,-0.8292 -0.43728,-26.07756 -0.2652,-56.10756 l 0.31284,-54.6 24.34416,-0.32496 24.34416,-0.32496 -15.64416,-19.32288 c -10.05864,-12.42372 -15.64416,-20.32146 -15.64416,-22.12 0,-2.23412 9.96552,-10.89893 49.5,-43.03916 31.22209,-25.38255 50.47117,-40.24672 52.13017,-40.25496 2.00808,-0.01 9.38736,8.35946 31.2,35.38662 15.7134,19.46984 28.73292,36.66923 28.93224,38.22086 0.30516,2.37509 -3.66864,6.12239 -25.13292,23.70028 -14.02248,11.48352 -27.35028,22.22916 -29.61744,23.87916 l -4.122,3 31.65492,0.6 31.65504,0.6 0,55.8 0,55.8 -91.5348,0.30756 c -72.59101,0.24384 -91.65445,0 -92.11285,-1.2 z m 177.04765,-54.90756 0,-49.2 -31.87884,0 c -19.68012,0 -32.76708,-0.47532 -34.2,-1.24224 -1.27824,-0.684 -2.32116,-2.50212 -2.32116,-4.04616 0,-2.21592 6.43296,-8.028 30.66996,-27.71004 18.71916,-15.2011 30.43752,-25.51187 30.07332,-26.46099 -0.3282,-0.85528 -11.77884,-15.39421 -25.44588,-32.30873 -15.3042,-18.94075 -25.45044,-30.52291 -26.41464,-30.15289 -2.83776,1.08892 -90.48277,72.78346 -90.48277,74.0158 0,0.66284 7.02,9.86153 15.6,20.44145 8.58,10.58004 15.6,20.0076 15.6,20.95008 0,0.9426 -1.08,2.79372 -2.4,4.11372 -2.23584,2.23584 -3.99996,2.4 -25.8,2.4 l -23.4,0 0,49.2 0,49.2 85.20001,0 85.2,0 0,-49.2 z m -556.200024,5.49048 c -16.500001,-4.17 -37.560002,-9.51552 -46.800002,-11.87916 -32.6097974,-8.34156 -167.186134,-41.58876 -196.800004,-48.61944 -16.5,-3.9174 -32.63681,-8.27472 -35.85958,-9.68292 l -5.85958,-2.56044 0.69636,-5.07432 c 0.38301,-2.79084 2.84998,-13.9842 5.48218,-24.8742 2.6322,-10.89 7.52766,-31.14 10.8788,-45 7.87064,-32.55216 17.15274,-71.02535 22.43735,-93.00001 2.30146,-9.57 6.27275,-26.04 8.82509,-36.6 2.55234,-10.56 6.52828,-27.03 8.83542,-36.6 21.52493,-89.2853 26.49787,-108.88047 28.0939,-110.7 1.01311,-1.155 3.10968,-2.1 4.65903,-2.1 1.54935,0 52.360662,12.40113 112.9140205,27.55809 60.5533585,15.15695 128.1870195,31.87128 150.2970195,37.14297 42.00648,10.01558 51.15708,12.80586 53.04192,16.17393 1.29672,2.31712 1.60104,0.92372 -17.19048,78.72501 -7.25316,30.03 -16.96008,70.26 -21.57072,89.40001 -8.88408,36.87941 -11.78143,48.85848 -21.33238,88.2 -3.28467,13.53 -9.57659,39.72 -13.98203,58.2 -4.40544,18.48 -8.77753,34.815 -9.71576,36.3 -0.96756,1.53144 -2.86248,2.6724 -4.37821,2.63604 -1.46979,-0.0348 -16.172343,-3.47568 -32.672344,-7.64556 z m 33.305314,-8.79048 c 1.1203,-4.455 8.25896,-34.02 15.86369,-65.7 7.60475,-31.68 17.04639,-70.83 20.98143,-87 3.93505,-16.17 12.60853,-52.08001 19.27453,-79.80001 6.666,-27.72 14.00328,-58.23 16.30512,-67.8 2.30184,-9.57 5.02332,-20.81092 6.04776,-24.97982 1.02432,-4.16891 1.65948,-7.78281 1.41144,-8.03089 -0.58416,-0.58413 -302.97575,-76.19569 -306.07835,-76.53341 -2.1422,-0.23317 -3.77877,5.65592 -18.43709,66.34412 -8.84741,36.63 -27.16845,112.41392 -40.71343,168.40869 -13.54498,55.99477 -24.74721,102.9004 -24.89383,104.2348 -0.24719,2.24964 10.77977,5.20284 151.533411,40.584 83.490003,20.9868 152.895399,38.20608 154.234219,38.26512 2.02813,0.09 2.77402,-1.24392 4.4711,-7.9926 z m -681.34978,-74.99604 c -0.3147,-0.82716 -0.43344,-81.42396 -0.26386,-179.10397 l 0.3083,-177.60001 177.00001,0 177,0 0,178.80001 0,178.80001 -176.73614,0.30396 c -140.75751,0.24216 -176.85262,0 -177.30831,-1.2 z m 347.44445,-177.90397 0,-172.2 -170.4,0 -170.40001,0 0,172.2 0,172.20001 170.40001,0 170.4,0 0,-172.20001 z m -599.45538,141.88846 c -0.32371,-0.84358 -0.44368,-14.75359 -0.2666,-30.91112 l 0.32196,-29.37733 60.6,0 60.6,0 0,30.6 0,30.6 -60.33339,0.31111 c -48.09479,0.24802 -60.45279,0 -60.92197,-1.22266 z m 114.65536,-29.68845 0,-24 -54,0 -54,0 0,24 0,24 54,0 54,0 0,-24 z m -119.45426,-97.5087 c -0.32268,-0.84088 -0.44247,-15.83042 -0.26621,-33.31009 l 0.32047,-31.78122 67.2,0 67.2,0 0,33 0,33 -66.93379,0.31009 c -53.3403,0.24712 -67.05294,-4e-4 -67.52047,-1.21878 z m 127.85426,-32.09131 0,-26.4 -60.6,0 -60.6,0 0,26.4 0,26.4 60.6,0 60.6,0 0,-26.4 z m -119.45522,-39.91121 c -0.32336,-0.84264 -0.44321,-15.02234 -0.26636,-31.51044 l 0.32158,-29.97835 64.8,0 64.8,0 0,31.2 0,31.2 -64.53366,0.31044 c -51.46664,0.24758 -64.65269,2.2e-4 -65.12156,-1.22165 z m 123.05522,-30.28879 0,-24.6 -58.2,0 -58.2,0 0,24.6 0,24.6 58.2,0 58.2,0 0,-24.6 z m 1233.27497,569.3297 c 11.99461,-3.06768 26.51281,-10.86024 34.04233,-18.2718 22.9728,-22.6134 15.9828,-53.89272 -15.73056,-70.39188 -14.25157,-7.41444 -25.18405,-9.9276 -43.18669,-9.9276 -18.00264,0 -28.93512,2.51316 -43.18668,9.9276 -38.83572,20.20464 -38.96496,61.23984 -0.25596,81.32112 20.79636,10.7886 44.76948,13.36512 68.31756,7.34256 z m -316.47493,-205.72969 0,-55.8 -40.2,0 -40.2,0 0,55.8 0,55.80001 40.2,0 40.2,0 0,-55.80001 z m 183.60001,-1.8 0,-57.6 -40.2,0 -40.2,0 0,57.6 0,57.60001 40.2,0 40.2,0 0,-57.60001 z m -96,1.8 0,-52.2 -40.20001,0 -40.2,0 0,52.2 0,52.20001 40.2,0 40.20001,0 0,-52.20001 z m -1008.00005,-90 0,-22.2 -60.6,0 -60.6,0 0,22.2 0,22.2 60.6,0 60.6,0 0,-22.2 z M 717.65359,459.77609 c 17.94768,-12.15521 32.63208,-22.51434 32.63208,-23.0203 0,-2.01726 -65.06016,-98.85632 -66.20352,-98.54093 -0.67476,0.18611 -16.07124,10.37479 -34.21452,22.64151 -24.4068,16.50149 -32.84964,22.81259 -32.45652,24.26162 0.29232,1.07717 14.9484,23.70366 32.56908,50.2811 22.40448,33.79264 32.4894,48.04519 33.53952,47.39995 0.82608,-0.50736 16.18632,-10.86768 34.13388,-23.02295 z M 384.88566,69.678311 c 3.96228,-1.210236 12.70296,-2.462089 19.43724,-2.783797 9.6384,-0.460464 13.62288,-1.219032 18.76248,-3.572028 7.38732,-3.38202 23.11248,-13.731564 26.34324,-17.337948 2.86572,-3.198817 10.09944,-15.284545 11.1516,-18.631537 0.46272,-1.4721 1.84572,-4.558548 3.07344,-6.858768 2.54904,-4.776349 2.78652,-8.441533 0.93468,-14.425693 -0.71352,-2.3056441 -1.75644,-7.4320803 -2.31768,-11.3920805 -0.56136,-3.9600001 -1.39404,-8.7039245 -1.85064,-10.5420485 -0.57336,-2.307972 -0.24012,-3.99408 1.07688,-5.449332 2.87364,-3.175332 5.87232,-17.779837 5.34036,-26.008621 -0.33732,-5.216256 -1.3368,-8.522497 -3.62784,-12.000001 -1.73916,-2.64 -4.31808,-8.42244 -5.73084,-12.849876 -1.41276,-4.427436 -3.60912,-9.372601 -4.88076,-10.989277 -1.27176,-1.616664 -2.31216,-3.723996 -2.31216,-4.682952 0,-0.958956 -2.02176,-4.813512 -4.49268,-8.565684 -3.42336,-5.198218 -5.97816,-7.548838 -10.73268,-9.875048 -3.432,-1.67912 -7.04748,-4.21938 -8.03436,-5.64504 -2.90412,-4.19528 -14.71356,-16.42135 -18.70932,-19.36924 -3.77148,-2.78259 -13.62744,-17.94741 -17.811,-27.40505 -1.65912,-3.75091 -5.6772,-8.17415 -13.93824,-15.34399 -9.00312,-7.81398 -12.42828,-11.68902 -15.26856,-17.27385 -2.01384,-3.96 -5.14716,-8.82 -6.96288,-10.8 -1.81572,-1.98 -7.10256,-9 -11.7486,-15.6 -4.64592,-6.6 -11.2338,-14.97 -14.63964,-18.6 -3.40572,-3.63 -6.95724,-8.0277 -7.89216,-9.77266 -0.93492,-1.74495 -3.20052,-4.73738 -5.03484,-6.64982 -8.08092,-8.42527 -16.69464,-18.84166 -18.54817,-22.4299 -1.10724,-2.14339 -5.6736,-7.37346 -10.14744,-11.62236 -24.1758,-22.95983 -28.79976,-27.84196 -35.79348,-37.79207 -4.20096,-5.97674 -8.5824,-11.64674 -9.73644,-12.6 -1.15416,-0.95325 -2.98056,-3.1796 -4.05876,-4.94744 -2.59812,-4.26 -15.88332,-18.09087 -24.57636,-25.58576 -3.82752,-3.3 -10.08384,-10.59 -13.90284,-16.2 -3.819,-5.61 -10.55628,-13.71 -14.97156,-18 -4.41528,-4.29 -11.18004,-12.39 -15.03264,-18 -11.95992,-17.41544 -15.78576,-21.67736 -28.16736,-31.37855 -18.33496,-14.36567 -20.1567,-15.45571 -28.88106,-17.28109 -4.4661,-0.93443 -9.24491,-2.7208 -10.61957,-3.96971 -4.366681,-3.96723 -7.537381,-4.97065 -15.706802,-4.97065 -6.41064,0 -9.003156,-0.60828 -13.283424,-3.11668 -5.26716,-3.08677 -5.666592,-3.12769 -41.613686,-4.26337 -35.7275533,-1.12873 -36.4081214,-1.1058 -43.495466,1.46556 -4.360692,1.58211 -11.695572,2.91915 -18.6,3.39051 -6.270001,0.42804 -11.940001,1.11895 -12.600001,1.53534 -0.66,0.4164 -15.510001,0.31756 -33.000001,-0.21963 -23.99255,-0.73692 -35.02401,-1.59236 -44.93147,-3.48422 -14.67764,-2.80276 -22.87377,-3.15023 -27.89041,-1.18242 -1.85798,0.72881 -10.93812,1.7922 -20.17812,2.36312 -17.51534,1.08222 -31.91547,2.70935 -33.73649,3.81202 -0.58493,0.35419 -9.97352,1.2938 -20.86352,2.08802 -18.85923,1.37543 -26.96297,2.76595 -37.77653,6.48207 -7.4428,2.55775 -22.8957,6.36288 -34.82347,8.57496 -5.94,1.1016 -13.23,2.72093 -16.2,3.59851 -9.22702,2.7264 -19.34618,5.02795 -31.2,7.0963 -12.25525,2.13838 -33.04479,6.9813 -55.2,12.8588 -13.18355,3.49744 -21.43781,5.95075 -36,10.69985 -3.63001,1.18383 -10.92001,3.27644 -16.20001,4.65023 -5.28,1.37379 -12.57,3.32058 -16.2,4.32619 -6.55737,1.81657 -10.46011,2.71452 -22.46343,5.1684 -7.44424,1.52185 -19.40151,6.68878 -45.12593,19.49965 -10.44414,5.20125 -19.64496,9.45679 -20.44626,9.45679 -0.8013,0 -3.3261,1.0072 -5.61065,2.23822 -2.28455,1.23102 -7.39373,3.99486 -11.35373,6.14188 -3.96,2.14701 -8.82,4.72533 -10.8,5.7296 -3.78243,1.91846 -19.82071,11.33083 -29.98771,17.59885 -3.29325,2.0303 -8.57156,5.98228 -11.7296,8.78217 -3.15804,2.79989 -7.75357,6.12885 -10.21228,7.3977 -2.45873,1.26884 -6.97467,4.64803 -10.03544,7.50929 -3.06075,2.86126 -9.52315,7.56336 -14.36089,10.4491 -16.22372,9.67759 -33.74917,23.55973 -41.87409,33.169 -10.24533,12.11709 -32.35059,36.41476 -34.13201,37.51722 -0.77049,0.47684 -4.27798,4.35652 -7.79443,8.62152 -3.51644,4.26501 -9.16657,10.47501 -12.55584,13.8 -16.49893,16.18607 -35.69804,38.04935 -42.71772,48.64549 -4.29,6.4757 -10.00252,14.65985 -12.69448,18.18698 -9.83565,12.8872 -13.70552,19.30659 -13.70552,22.73495 0,2.45977 -1.7254,5.35787 -6,10.07804 -3.3,3.64398 -6,7.36907 -6,8.27798 0,0.90891 -1.66252,5.3582 -3.69447,9.8873 -4.30004,9.58451 -5.81937,13.21211 -15.00849,35.834727 -13.47531,33.174697 -18.12111,47.24201 -23.81578,72.1132708 -2.16541,9.4573562 -1.96532,10.4745242 3.77415,19.1865492 6.03352,9.158376 10.65955,11.234064 26.98012,12.1059 12.44163,0.664632 14.10006,0.49398 20.03473,-2.061564 l 6.47026,-2.786184 29.52974,1.512048 c 38.65979,1.979544 112.51384,3.593904 171.72975,3.753792 26.07,0.07044 53.34,0.649824 60.6,1.287624 7.26,0.637788 22.92,1.632156 34.8,2.209704 11.88,0.577548 35.1,1.704552 51.6,2.504448 21.557,1.045056 60.28777,1.23444 137.61957,0.672936 66.45046,-0.482496 112.58515,-0.336912 120.60001,0.380568 27.19973,2.434896 97.89433,5.321941 177.380441,7.243885 25.740001,0.622392 51.120002,1.688364 56.400003,2.368836 5.28,0.680484 14.73,1.828284 21,2.550672 6.270001,0.7224 13.664125,1.818372 16.431385,2.435484 2.76726,0.617124 6.950688,1.122036 9.296508,1.122036 2.345821,0 10.611697,1.053732 18.368617,2.34162 10.152421,1.685628 25.197376,2.6988 53.703496,3.61656 21.78,0.70122 42.96732,1.585068 47.08296,1.964112 l 7.48308,0.68916 0.31692,-38.205721 0.31704,-38.205734 41.4,0 41.4,0 0.3174,36.900002 0.31728,36.900001 4.70664,0 c 2.58864,0 9.19584,1.07622 14.68272,2.391588 5.48677,1.31538 12.23749,2.39538 15.00145,2.4 2.76408,0.0048 8.70408,0.902425 13.2,1.995109 17.74068,4.311612 49.92744,4.522464 63.37452,0.415152 z m -118.20001,-41.40185 0,-33.0000015 -34.8,0 -34.8,0 0,33.0000015 0,33.000001 34.8,0 34.8,0 0,-33.000001 z M 1083.2448,1667.7975 c -0.32,-0.8365 -0.4416,-33.651 -0.2704,-72.921 l 0.3113,-71.4 30,0 30,0 0,72.6 0,72.6 -29.7297,0.321 c -23.1338,0.2499 -29.8586,-0.017 -30.3112,-1.2 z m 53.4409,-71.721 0,-66 -23.4,0 -23.4,0 0,66 0,66 23.4,0 23.4,0 0,-66 z m -802.43272,29.2265 c -0.79692,-2.077 2.39664,-5.2265 5.29968,-5.2265 2.71572,0 3.32796,3.7972 0.89868,5.5735 -2.98092,2.1797 -5.27808,2.0511 -6.19836,-0.347 z M 965.99036,429.63198 c -21.65832,-2.42587 -43.87212,-10.68682 -58.71756,-21.83606 -29.85276,-22.41992 -47.63496,-50.43299 -53.90556,-84.91945 -1.82544,-10.03945 -1.82544,-35.56055 0,-45.6 8.56296,-47.09368 41.43192,-85.78109 85.59144,-100.74272 13.50888,-4.5769 25.44348,-6.44809 41.127,-6.44809 15.68352,0 27.61812,1.87119 41.12702,6.44809 33.0497,11.19753 60.0245,35.72774 75.7985,68.92929 11.7457,24.72253 14.7465,58.61538 7.7034,87.00339 -10.6358,42.86779 -43.388,78.16005 -85.0289,91.62307 -16.5975,5.36618 -36.72278,7.44353 -53.69534,5.54248 z m 41.94224,-11.40658 c 26.8329,-6.76174 51.1142,-22.95781 67.5368,-45.0483 18.1153,-24.36729 27.3153,-56.87048 23.9871,-84.74516 -6.3047,-52.80406 -41.4572,-93.54103 -92.1239,-106.75911 -16.5854,-4.32688 -37.90844,-4.32688 -54.49388,0 -50.66664,13.21808 -85.8192,53.95505 -92.12388,106.75911 -1.05372,8.82577 -1.05372,14.4633 0,23.28907 5.30196,44.40508 30.86424,80.47137 70.05,98.83441 25.04184,11.73497 50.85516,14.30066 77.16776,7.66998 z m 201.3296,-25.78704 c -0.4661,-0.75405 -0.2827,-1.93566 0.4074,-2.62578 1.6127,-1.61268 5.3726,-0.20602 4.7165,1.76453 -0.668,2.00602 -4.0637,2.57679 -5.1239,0.86125 z m -67.3719,-89.43841 c -0.3961,-1.03209 -0.1044,-3.22896 0.6492,-4.88194 1.7172,-3.76869 6.5583,-3.55837 7.11,0.30888 0.6773,4.74754 -6.1485,8.77049 -7.7592,4.57306 z M 948.28568,-74.026999 c 0,-2.709996 3.80532,-10.050661 5.559,-10.723621 2.59224,-0.99474 4.23588,1.920756 3.46104,6.139573 -0.79116,4.308072 -0.57372,4.098228 -5.20752,5.025 -2.25588,0.451176 -3.81252,0.271128 -3.81252,-0.440952 z m -112.014,-261.691041 c -2.661,-2.94034 -2.5026,-4.50761 0.681,-6.73747 5.62464,-3.93965 9.477,-0.75924 6.99324,5.77346 -1.40988,3.7084 -4.80468,4.13483 -7.67424,0.96401 z m -1632.64391,-26.30551 c -10.06376,-13.69501 -25.55274,-34.53815 -34.41996,-46.31811 -8.86721,-11.77997 -16.1222,-22.42597 -16.1222,-23.65779 0,-1.23182 1.06987,-2.81224 2.37749,-3.51206 1.30761,-0.69982 6.91186,-4.63381 12.45389,-8.74222 5.54202,-4.1084 19.68234,-14.48983 31.42292,-23.06983 20.89527,-15.27023 41.18815,-30.2276 69.04395,-50.89053 33.36888,-24.75243 44.83509,-33.18577 46.64818,-34.30947 1.0649,-0.66 9.93189,-7.14 19.70442,-14.4 9.77253,-7.26 29.7594,-22.11 44.41526,-33 14.65587,-10.89001 34.36779,-25.47001 43.80429,-32.40001 9.4365,-6.93 22.84794,-16.785 29.8032,-21.9 6.95526,-5.115 13.55459,-9.3 14.66516,-9.3 1.24737,0 9.78704,10.59289 22.34024,27.71159 11.17656,15.24138 26.37117,35.89637 33.7658,45.9 7.39464,10.00364 13.46682,19.26842 13.49374,20.58842 0.0352,1.72604 -5.54687,6.61219 -19.87825,17.4 -10.95997,8.25 -21.89215,16.30439 -24.29374,17.89865 -2.4016,1.59426 -14.62654,10.55084 -27.16654,19.90352 -12.54,9.35267 -41.16,30.48799 -63.6,46.96737 -73.9352,54.29616 -86.06813,63.24161 -111.56069,82.25222 -13.88163,10.35196 -27.12932,20.17224 -29.43932,21.82284 -2.31,1.65062 -11.19463,8.16583 -19.74362,14.47826 -8.54899,6.31243 -16.41502,11.47715 -17.48005,11.47715 -1.13181,0 -9.53948,-10.3464 -20.23417,-24.9 z m 32.5982,5.4 c 5.58649,-4.125 13.19567,-9.66001 16.90927,-12.30001 3.7136,-2.64 21.2613,-15.6 38.99488,-28.8 17.73357,-13.2 54.5882,-40.42442 81.89919,-60.49873 62.39109,-45.85914 57.38822,-42.17262 85.05631,-62.67629 12.87,-9.53742 33.21036,-24.60318 45.2008,-33.47945 12.87244,-9.52919 21.42215,-16.63153 20.87623,-17.3421 -2.93021,-3.81397 -46.33008,-62.80667 -52.23974,-71.0086 l -7.06484,-9.80517 -4.88623,3.90156 c -2.68742,2.14586 -11.51502,8.71819 -19.61689,14.60517 -32.4256,23.5611 -70.53399,51.71745 -105.02835,77.60009 -7.78747,5.84328 -15.06869,10.97321 -16.1805,11.39985 -1.11181,0.42664 -3.65026,2.30073 -5.64098,4.16466 -1.99073,1.86391 -11.71951,9.29382 -21.61951,16.5109 -22.84734,16.65569 -46.00711,33.65669 -60.6,44.48494 -6.27,4.65247 -14.37,10.56653 -18,13.14234 -8.30672,5.89437 -41.41944,30.28427 -46.11815,33.96934 l -3.51814,2.7592 14.0164,18.53614 c 7.70903,10.19488 21.17219,28.36079 29.91815,40.36868 8.74596,12.00788 16.25794,21.86288 16.69329,21.9 0.43534,0.0371 5.36232,-3.30752 10.94881,-7.43252 z m 1624.75971,-86.13556 c -5.919,-2.62991 -6.76668,-6.01983 -2.04348,-8.17182 5.94324,-2.70794 6.55284,-2.21818 8.34924,6.70737 0.89964,4.46981 0.60972,4.53713 -6.30576,1.46445 z M -741.31439,-547.1007 c 0,-1.54642 1.06792,-2.64516 3.05589,-3.14411 3.74316,-0.93948 4.60177,-0.21113 3.57282,3.03082 -1.07784,3.39595 -6.62871,3.49082 -6.62871,0.11329 z m 140.61655,-109.52287 c 0.2939,-2.0694 1.29432,-2.78782 4.28346,-3.07603 4.34876,-0.4193 5.20077,1.52402 1.8,4.10558 -3.44569,2.61565 -6.5271,2.09416 -6.08346,-1.02955 z"
         id="path3359"
         inkscape:connector-curvature="0" />
    </g>
  </g>
</svg>
